<svg width="56" height="56" fill="none" xmlns="http://www.w3.org/2000/svg"><g clip-path="url('#clip0_416_3623')"><path d="m48.523 28.677-20.66-17.932a.88.88 0 0 0-.575-.214h-4.84a.436.436 0 0 0-.284.767l19.152 16.625H9.313a.437.437 0 0 0-.437.437v3.282c0 .241.196.437.438.437h31.996L22.159 48.704a.435.435 0 0 0 .283.767h5.003a.414.414 0 0 0 .284-.11l20.791-18.036A1.737 1.737 0 0 0 49.121 30a1.773 1.773 0 0 0-.602-1.325l.004.002Z" fill="#000"/></g><defs><clipPath id="clip0_416_3623"><path fill="#fff" d="M0 0h56v56H0z"/></clipPath></defs></svg>