<svg width="19" height="18" fill="none" xmlns="http://www.w3.org/2000/svg"><path d="m13.24 8.51 1.57-1.57-3.75-3.75-1.57 1.57L5.35.63c-.78-.78-2.05-.78-2.83 0l-1.9 1.9c-.78.78-.78 2.05 0 2.83l4.13 4.13L0 14.25V18h3.75l4.76-4.76 4.13 4.13c.95.95 2.23.6 2.83 0l1.9-1.9c.78-.78.78-2.05 0-2.83l-4.13-4.13Zm-7.06-.44L2.04 3.94l1.89-1.9L5.2 3.31 4.02 4.5l1.41 1.41 1.19-1.19 1.45 1.45-1.89 1.9Zm7.88 7.89-4.13-4.13 1.9-1.9 1.45 1.45-1.19 1.19 1.41 1.41 1.19-1.19 1.27 1.27-1.9 1.9Zm3.65-11.92a.996.996 0 0 0 0-1.41L15.37.29c-.47-.47-1.12-.29-1.41 0l-1.83 1.83 3.75 3.75 1.83-1.83Z" fill="#000"/></svg>