<svg width="32" height="32" fill="none" xmlns="http://www.w3.org/2000/svg"><path d="M27.2 4H4.8C3.26 4 2.014 5.35 2.014 7L2 25c0 1.65 1.26 3 2.8 3h22.4c1.54 0 2.8-1.35 2.8-3V7c0-1.65-1.26-3-2.8-3Zm-.56 6.375-9.899 6.63c-.447.3-1.035.3-1.483 0l-9.898-6.63a1.218 1.218 0 0 1-.361-.335 1.315 1.315 0 0 1-.208-.46 1.358 1.358 0 0 1 .144-.995c.086-.146.197-.271.328-.368.133-.1.283-.169.44-.203.158-.035.32-.035.477 0 .158.034.307.103.44.201L16 14.5l9.38-6.285c.133-.1.283-.168.44-.202a1.138 1.138 0 0 1 .913.203 1.272 1.272 0 0 1 .5.85c.024.171.017.346-.022.513-.04.168-.112.324-.21.46a1.21 1.21 0 0 1-.361.336Z" fill="#000"/></svg>