<svg width="40" height="40" xmlns="http://www.w3.org/2000/svg"><g clip-path="url('#clip0_22_2891')"><path d="M39.4 18.64 18.87.22A.855.855 0 0 0 18.3 0h-4.81c-.403 0-.587.517-.283.787l19.032 17.078H.435a.444.444 0 0 0-.435.45v3.37c0 .248.196.45.435.45h31.798L13.2 39.214c-.305.275-.12.786.282.786h4.973a.41.41 0 0 0 .282-.112L39.401 21.36c.19-.17.34-.38.442-.613a1.853 1.853 0 0 0 0-1.494 1.8 1.8 0 0 0-.443-.613Z" fill="#CDCDCD"/></g><defs><clipPath id="clip0_22_2891"><path fill="#fff" d="M0 0h40v40H0z"/></clipPath></defs></svg>