<svg width="32" height="32" fill="none" xmlns="http://www.w3.org/2000/svg"><path d="M27.04 4H4.96a.959.959 0 0 0-.96.96v22.08c0 .531.429.96.96.96h22.08c.531 0 .96-.429.96-.96V4.96a.959.959 0 0 0-.96-.96ZM11.119 24.451H7.558V12.997h3.561v11.454ZM9.34 11.431a2.063 2.063 0 0 1-1.46-3.523 2.062 2.062 0 1 1 2.918 2.918 2.068 2.068 0 0 1-1.459.606l.001-.001Zm15.111 13.02h-3.558V18.88c0-1.329-.024-3.036-1.851-3.036-1.851 0-2.136 1.446-2.136 2.94v5.667h-3.555V12.997h3.414v1.566h.048c.474-.9 1.635-1.851 3.369-1.851 3.606 0 4.269 2.373 4.269 5.457v6.282Z" fill="#000"/></svg>