<svg width="54" height="44" fill="none" xmlns="http://www.w3.org/2000/svg"><path d="M4.44 4.45H0v25.602h10.007v-4.45H4.439V4.45ZM19.724 0H4.441v4.45H17.25l5.058 8.352-5.058 8.352h-7.241v4.449h9.715l7.787-12.802L19.724 0ZM9.974 34.975a8.21 8.21 0 0 1 1.055-.146c.364-.036.764-.036 1.128-.036.4 0 .8.036 1.165.11.4.072.764.182 1.055.4.327.183.582.475.764.803.182.328.291.802.291 1.35 0 .473-.073.911-.255 1.24-.182.328-.4.62-.691.838-.291.22-.619.401-.982.474-.364.11-.728.146-1.128.146h-.692c-.073 0-.145 0-.182-.036v2.735H9.937l.037-7.878Zm2.329 1.13h-.437c-.146 0-.255.037-.327.037v2.553c.036 0 .072 0 .145.037h.51c.218 0 .4-.037.618-.073.182-.036.364-.11.546-.219.146-.11.291-.255.364-.438.109-.182.145-.4.145-.729 0-.255-.036-.438-.145-.62a1.26 1.26 0 0 0-.364-.401 1.275 1.275 0 0 0-.51-.219c-.181.11-.363.073-.545.073ZM15.898 39.973c0-.474.073-.912.219-1.276.145-.365.364-.693.618-.949.255-.255.583-.437.946-.583.364-.146.765-.183 1.238-.183s.91.073 1.273.22c.364.145.692.328.946.62.255.255.437.583.582.947.146.365.182.766.182 1.24 0 .475-.072.912-.218 1.277a2.854 2.854 0 0 1-.619.948c-.254.256-.582.438-.946.584-.363.146-.764.182-1.237.182-.473 0-.91-.073-1.273-.219-.364-.145-.692-.328-.946-.62-.255-.255-.437-.583-.583-.948a4.43 4.43 0 0 1-.182-1.24Zm1.529 0c0 .255.036.474.109.693.073.219.182.401.291.547.145.146.291.292.473.365.182.073.4.146.619.146.436 0 .8-.146 1.055-.401.291-.292.4-.73.4-1.313 0-.511-.145-.949-.4-1.277-.255-.328-.619-.474-1.092-.474-.218 0-.4.036-.582.11a1.385 1.385 0 0 0-.473.328c-.146.145-.218.328-.328.547a3.768 3.768 0 0 0-.072.73ZM26.09 38.515l.873 2.48H27l.109-.985.473-2.845 1.31-.036-1.128 5.69h-1.492l-.619-2.262h-.072l-.692 2.261h-1.528l-1.2-5.653h1.455l.582 3.137.073.693h.072l.837-2.48h.91ZM34.715 42.198c-.11.073-.219.182-.364.255-.146.073-.328.182-.546.255a3.828 3.828 0 0 1-.691.183c-.255.036-.51.073-.801.073-.473 0-.91-.073-1.31-.22a3.341 3.341 0 0 1-.983-.583 2.854 2.854 0 0 1-.618-.948 3.28 3.28 0 0 1-.218-1.24c0-.51.072-.948.254-1.313.146-.365.364-.693.655-.948.291-.255.582-.438.983-.547.364-.11.764-.183 1.2-.183.292 0 .583.037.874.11.291.073.582.219.837.401.255.182.473.438.618.73.146.291.255.692.255 1.166 0 .329-.036.694-.11 1.058h-4.075c0 .255.073.438.146.62a1.3 1.3 0 0 0 .364.401c.146.11.327.183.546.22.182.036.4.072.655.072.436 0 .837-.036 1.128-.146.29-.11.51-.218.691-.4l.51.984Zm-2.438-4.048c-.182 0-.364.036-.546.072-.182.037-.328.146-.473.22a.891.891 0 0 0-.328.4c-.073.146-.145.329-.145.511h2.765c0-.365-.109-.693-.327-.912-.219-.182-.546-.291-.946-.291ZM35.55 41.541h1.384v-3.173H35.55v-1.24h2.547l.182.73h.036c.219-.256.437-.474.728-.62.255-.183.582-.256.946-.256.437 0 .8.183 1.055.511.255.328.4.875.4 1.678h-1.31c0-.256-.036-.474-.108-.584a.448.448 0 0 0-.364-.182c-.291 0-.546.073-.728.219-.182.145-.328.328-.473.51v2.407H40.9v1.24h-5.313l-.036-1.24ZM41.445 34.867h2.402v4.523h.327l1.856-2.262h1.71l-2.256 2.59 1.456 1.823h1.055v1.24h-1.82l-1.928-2.334h-.4v2.334l-1.492.037v-6.71h-.91v-1.24ZM47.922 34.867h2.292v2.881h.037c.182-.255.436-.437.727-.583.292-.146.655-.219 1.056-.219.29 0 .546.037.8.11.255.072.437.182.619.364s.29.401.4.693c.11.292.146.657.146 1.094v3.538h-1.456v-3.21c0-.474-.109-.802-.291-.984-.182-.219-.437-.292-.764-.292-.291 0-.546.073-.764.255-.219.183-.4.401-.51.657v3.61H48.76v-6.674h-.8l-.037-1.24Z" fill="#000"/></svg>