<svg width="10" height="11" fill="none" xmlns="http://www.w3.org/2000/svg"><g clip-path="url('#clip0_68_3792')"><path d="M9.85 5.96 4.719 1.816a.228.228 0 0 0-.142-.05H3.373c-.1 0-.147.116-.07.177L8.06 5.786H.111c-.06 0-.109.045-.109.1v.76c0 .055.049.1.109.1h7.95l-4.76 3.843c-.076.062-.03.177.07.177h1.244c.025 0 .05-.01.07-.025l5.166-4.17a.409.409 0 0 0 .11-.137.382.382 0 0 0-.11-.474Z" fill="#CDCDCD"/></g><defs><clipPath id="clip0_68_3792"><path fill="#fff" transform="translate(0 1.766)" d="M0 0h10v9H0z"/></clipPath></defs></svg>