<svg aria-hidden="true" style="width:0;height:0;position:absolute;overflow:hidden" xmlns="http://www.w3.org/2000/svg"><defs><symbol id="icon-instagram" viewBox="0 0 32 32"><path d="M16 11.835c-2.294 0-4.166 1.872-4.166 4.166s1.872 4.166 4.166 4.166c2.294 0 4.166-1.872 4.166-4.166S18.294 11.835 16 11.835zM28.494 16c0-1.725.016-3.434-.081-5.156-.097-2-.553-3.775-2.016-5.237-1.466-1.466-3.238-1.919-5.238-2.016-1.725-.097-3.434-.081-5.156-.081-1.725 0-3.434-.016-5.156.081-2 .097-3.775.553-5.237 2.016-1.466 1.466-1.919 3.237-2.016 5.237-.097 1.725-.081 3.434-.081 5.156s-.016 3.434.081 5.156c.097 2 .553 3.775 2.016 5.238 1.466 1.466 3.238 1.919 5.237 2.016 1.725.097 3.434.081 5.156.081 1.725 0 3.434.016 5.156-.081 2-.097 3.775-.553 5.238-2.016 1.466-1.466 1.919-3.238 2.016-5.238.1-1.722.081-3.431.081-5.156zM16 22.41c-3.547 0-6.409-2.863-6.409-6.409S12.454 9.592 16 9.592c3.547 0 6.409 2.863 6.409 6.409S19.546 22.41 16 22.41zm6.672-11.585c-.828 0-1.497-.669-1.497-1.497s.669-1.497 1.497-1.497a1.495 1.495 0 0 1 .573 2.88 1.482 1.482 0 0 1-.573.113z"/></symbol><symbol id="icon-arrow-down" viewBox="0 0 33 32"><path d="m17.838 31.521 14.737-16.426a.685.685 0 0 0 .175-.456v-3.848c0-.322-.414-.47-.629-.226L18.458 25.791V.348a.355.355 0 0 0-.36-.348h-2.697a.355.355 0 0 0-.36.348v25.438L1.378 10.56c-.22-.243-.629-.096-.629.226v3.978c0 .083.031.165.09.226l14.822 16.53a1.478 1.478 0 0 0 2.176 0z"/></symbol><symbol id="icon-arrow-long-right" viewBox="0 0 215 32"><path d="m206.115 18.133-8.285 8.533 2.071 4.267L214.399 16 199.901 1.067l-2.071 4.267 8.285 8.533H1.066v4.267h205.049z"/></symbol><symbol id="icon-attantion" viewBox="0 0 35 32"><path fill="#eb5757" style="fill:var(--color1,#eb5757)" d="M34.667 29.44c0 .832-.286 1.467-.857 1.904S32.538 32 31.708 32H2.959c-.831 0-1.531-.224-2.102-.672S0 30.251 0 29.44c0-.64.187-1.291.561-1.952L14.92 1.76C15.605.587 16.415 0 17.349 0s1.723.587 2.367 1.76l14.39 25.76c.374.683.561 1.323.561 1.92zM19.498 13.088V8.416h-4.329v4.672c0 .299.021.581.062.848s.099.565.171.896c.073.331.13.613.171.848l.81 5.184h1.838l.841-5.184c.042-.213.104-.491.187-.832s.145-.645.187-.912c.042-.267.062-.549.062-.848zm0 12.384c0-.619-.213-1.141-.639-1.568s-.94-.64-1.542-.64c-.581 0-1.085.213-1.511.64s-.639.949-.639 1.568c0 .619.213 1.147.639 1.584s.929.656 1.511.656c.602 0 1.116-.219 1.542-.656s.639-.965.639-1.584z"/></symbol><symbol id="icon-audit" viewBox="0 0 32 32"><path d="M21.091 14.545a6.518 6.518 0 0 1 6.545 6.545 6.49 6.49 0 0 1-1.004 3.491l4.48 4.509-2.022 2.022-4.538-4.465a6.546 6.546 0 0 1-3.462.989c-3.636 0-6.545-2.909-6.545-6.545s2.909-6.545 6.545-6.545zm0 2.91a3.636 3.636 0 1 0 0 7.272 3.636 3.636 0 0 0 0-7.272zM11.636 0h5.818a2.909 2.909 0 0 1 2.909 2.909v2.909h5.818a2.909 2.909 0 0 1 2.909 2.909v7.316a9.45 9.45 0 0 0-8-4.407 9.453 9.453 0 0 0-9.454 9.454 9.423 9.423 0 0 0 2.633 6.545H2.909A2.907 2.907 0 0 1 0 24.726v-16a2.899 2.899 0 0 1 2.909-2.909h5.818V2.908a2.899 2.899 0 0 1 2.909-2.909zm5.819 5.818V2.909h-5.818v2.909h5.818z"/></symbol><symbol id="icon-burger" viewBox="0 0 32 32"><path d="M0 1.333h32v4H0v-4zM0 13.333h32v4H0v-4zM0 25.333h32v4H0v-4z"/></symbol><symbol id="icon-close" viewBox="0 0 32 32"><path d="m4.31 0 26.937 26.937-4.31 4.31L0 4.31 4.31 0z"/><path d="M.001 26.937 26.938 0l4.31 4.31L4.311 31.247l-4.31-4.31z"/></symbol><symbol id="icon-facebook" viewBox="0 0 32 32"><path d="M4.624 3.2h22.768A1.4 1.4 0 0 1 28.8 4.608v22.784a1.41 1.41 0 0 1-1.408 1.408h-6.528v-9.92h3.328l.496-3.856h-3.824V12.56c0-1.12.32-1.888 1.92-1.888h2.048V7.216c-.352-.048-1.568-.144-2.976-.144-2.96 0-4.976 1.792-4.976 5.104v2.848h-3.344v3.856h3.344v9.92H4.624A1.424 1.424 0 0 1 3.2 27.392V4.608c0-.784.64-1.408 1.424-1.408z"/></symbol><symbol id="icon-linkedin" viewBox="0 0 32 32"><path d="M27.734 3.2H3.201c-.59 0-1.067.477-1.067 1.067V28.8c0 .59.477 1.067 1.067 1.067h24.533c.59 0 1.067-.477 1.067-1.067V4.267c0-.59-.477-1.067-1.067-1.067zm-17.69 22.724H6.087V13.197h3.957v12.727zM8.067 11.457a2.291 2.291 0 0 1-1.621-3.914 2.296 2.296 0 0 1 2.499-.498 2.297 2.297 0 0 1 1.416 2.119 2.297 2.297 0 0 1-2.293 2.293zm16.79 14.467h-3.953v-6.19c0-1.477-.027-3.373-2.057-3.373-2.057 0-2.373 1.607-2.373 3.267v6.297h-3.95V13.198h3.793v1.74h.053c.527-1 1.817-2.057 3.743-2.057 4.007 0 4.743 2.637 4.743 6.063v6.98z"/></symbol><symbol id="icon-design" viewBox="0 0 34 32"><path d="m23.538 15.129 2.791-2.791-6.667-6.667-2.791 2.791-7.36-7.342a3.562 3.562 0 0 0-5.031 0L1.102 4.498a3.562 3.562 0 0 0 0 5.031l7.342 7.342L0 25.333V32h6.667l8.462-8.462 7.342 7.342c1.689 1.689 3.964 1.067 5.031 0l3.378-3.378a3.562 3.562 0 0 0 0-5.031l-7.342-7.342zm-12.551-.783-7.36-7.342 3.36-3.378 2.258 2.258L7.147 8l2.507 2.507 2.116-2.116 2.578 2.578-3.36 3.378zm14.009 14.027-7.342-7.342 3.378-3.378 2.578 2.578-2.116 2.116 2.507 2.507 2.116-2.116 2.258 2.258-3.378 3.378zm6.488-21.191a1.777 1.777 0 0 0 .52-1.253 1.771 1.771 0 0 0-.52-1.253l-4.16-4.16c-.836-.836-1.991-.516-2.507 0l-3.253 3.253 6.667 6.667 3.253-3.253z"/></symbol><symbol id="icon-done" viewBox="0 0 32 32"><path d="M7.742 12.903V16l6.452 7.226 10.839-11.871V8.258L14.194 20.129l-1.032-1.032-5.419-6.194z"/><path fill="none" stroke="#0e0e0e" style="stroke:var(--color2,#0e0e0e)" stroke-width="2.064" d="M30.968 16c0 8.266-6.701 14.968-14.968 14.968S1.032 24.267 1.032 16C1.032 7.734 7.733 1.032 16 1.032S30.968 7.733 30.968 16z"/></symbol><symbol id="icon-eye" viewBox="0 0 44 32"><path d="M22 1C12 1 3.46 7.22 0 16c3.46 8.78 12 15 22 15s18.54-6.22 22-15C40.54 7.22 32 1 22 1zm0 25c-5.52 0-10-4.48-10-10S16.48 6 22 6s10 4.48 10 10-4.48 10-10 10zm0-16c-3.32 0-6 2.68-6 6s2.68 6 6 6 6-2.68 6-6-2.68-6-6-6z"/></symbol><symbol id="icon-frame-down-left" viewBox="0 0 32 32"><path fill="#fff" style="fill:var(--color3,#fff)" d="M0 27.2h4.8V0H0v27.2zM32 32v-4.8H4.8V32H32z"/></symbol><symbol id="icon-frame-down-right" viewBox="0 0 32 32"><path fill="#fff" style="fill:var(--color3,#fff)" d="M32 27.2h-4.8V0H32v27.2zM0 32v-4.8h27.2V32H0z"/></symbol><symbol id="icon-frame-up-left" viewBox="0 0 32 32"><path fill="#fff" style="fill:var(--color3,#fff)" d="M0 4.8h4.8V32H0V4.8zM32 0v4.8H4.8V0H32z"/></symbol><symbol id="icon-frame-up-right" viewBox="0 0 32 32"><path fill="#fff" style="fill:var(--color3,#fff)" d="M32 4.8h-4.8V32H32V4.8zM0 0v4.8h27.2V0H0z"/></symbol><symbol id="icon-logo" viewBox="0 0 39 32"><path d="M3.229 3.236H0v18.62h7.278V18.62H3.229V3.236zM14.345 0H3.23v3.236h9.315l3.678 6.074-3.678 6.074H7.279v3.236h7.066l5.663-9.31L14.345 0zM7.254 25.437a5.87 5.87 0 0 1 .767-.106c.265-.026.556-.026.82-.026.291 0 .582.026.847.08.291.053.556.133.767.292.238.133.423.345.556.584s.212.584.212.981c0 .345-.053.663-.185.902s-.291.451-.503.61c-.212.159-.45.292-.715.345-.265.08-.529.106-.82.106h-.502c-.053 0-.106 0-.132-.027v1.989H7.228l.026-5.729zm1.693.822h-.318c-.106 0-.185.027-.238.027v1.857c.026 0 .053 0 .106.027h.37c.159 0 .291-.027.45-.053.132-.026.265-.08.397-.159a.786.786 0 0 0 .265-.318c.079-.133.106-.292.106-.531 0-.186-.026-.318-.106-.451-.053-.106-.159-.212-.265-.292s-.238-.133-.371-.159c-.132.08-.265.053-.397.053zM11.562 29.071c0-.345.053-.663.159-.928s.265-.504.45-.69c.185-.186.423-.318.688-.424s.556-.133.9-.133.662.053.926.159.503.239.688.451c.185.186.318.424.423.69s.132.557.132.902-.053.663-.159.928-.265.504-.45.69-.423.318-.688.424c-.265.106-.556.133-.9.133s-.662-.053-.926-.159c-.265-.106-.503-.239-.688-.451a2.004 2.004 0 0 1-.423-.69 3.24 3.24 0 0 1-.132-.902zm1.112 0c0 .186.026.345.079.504s.132.292.212.398c.106.106.212.212.344.265s.291.106.45.106c.318 0 .582-.106.768-.292.212-.212.291-.53.291-.955 0-.371-.106-.69-.291-.928s-.45-.345-.794-.345a1.013 1.013 0 0 0-.767.319c-.106.106-.159.239-.238.398a2.778 2.778 0 0 0-.053.53zM18.975 28.011l.635 1.804h.026l.079-.716.344-2.069.953-.027-.82 4.138h-1.085l-.45-1.645h-.053l-.503 1.645H16.99l-.873-4.111h1.059l.423 2.281.053.504h.053l.609-1.804h.662zM25.247 30.689c-.079.053-.159.133-.265.186s-.238.133-.397.186c-.159.053-.318.106-.503.133s-.37.053-.582.053c-.344 0-.662-.053-.953-.159a2.443 2.443 0 0 1-.715-.424c-.185-.186-.344-.424-.45-.69s-.159-.557-.159-.902c0-.371.053-.69.185-.955.106-.265.265-.504.476-.69s.423-.318.715-.398c.265-.08.556-.133.873-.133.212 0 .423.027.635.08s.423.159.609.292c.185.133.344.318.45.531s.185.504.185.849c0 .239-.026.504-.079.769h-2.964c0 .186.053.318.106.451.079.133.159.212.265.292s.238.133.397.159c.132.027.291.053.476.053.318 0 .609-.027.82-.106s.371-.159.503-.292l.37.716zm-1.773-2.944c-.132 0-.265.027-.397.053s-.238.106-.344.159a.648.648 0 0 0-.238.292.865.865 0 0 0-.106.371H24.4c0-.265-.079-.504-.238-.663-.159-.133-.397-.212-.688-.212zM25.855 30.212h1.006v-2.308h-1.006v-.902h1.852l.132.53h.026c.159-.186.318-.345.529-.451.185-.133.423-.186.688-.186.318 0 .582.133.767.371s.291.637.291 1.22h-.953c0-.186-.026-.345-.079-.424s-.159-.133-.265-.133c-.212 0-.397.053-.529.159s-.238.239-.344.371v1.751h1.773v.902h-3.864l-.026-.902zM30.142 25.358h1.747v3.289h.238l1.35-1.645h1.244l-1.641 1.883 1.059 1.326h.767v.902h-1.323l-1.403-1.698h-.291v1.698l-1.085.027v-4.881h-.662v-.902zM34.852 25.358h1.667v2.095h.026c.132-.186.318-.318.529-.424s.476-.159.767-.159c.212 0 .397.026.582.08s.318.133.45.265c.132.133.212.292.291.504s.106.477.106.796v2.573h-1.059v-2.334c0-.345-.079-.584-.212-.716-.132-.159-.318-.212-.556-.212-.212 0-.397.053-.556.186s-.291.292-.37.477v2.626h-1.059v-4.854h-.582l-.026-.902z"/></symbol><symbol id="icon-logo-part" viewBox="0 0 30 32"><path fill="#cdcdcd" style="fill:var(--color4,#cdcdcd)" d="M4.727 4.737H0v27.264h10.658v-4.74H4.727V4.737z"/><path fill="#cdcdcd" style="fill:var(--color4,#cdcdcd)" d="M21.004 0H4.727v4.736h13.641l5.389 8.896-5.389 8.892h-7.712v4.738h10.347l8.294-13.632L21.005 0z"/></symbol><symbol id="icon-long-arrow-down" viewBox="0 0 19 32"><path d="m2.667 22.873 6.667 5.705 6.667-5.705 2.667 1.141L9.335 32 .002 24.014l2.667-1.141z"/><path d="M10.667 1.195v28.523H8V1.195h2.667z"/></symbol><symbol id="icon-mail" viewBox="0 0 37 32"><path d="M33.6 0H3.733C1.68 0 .018 1.8.018 4L0 28c0 2.2 1.68 4 3.733 4H33.6c2.053 0 3.733-1.8 3.733-4V4c0-2.2-1.68-4-3.733-4zm-.747 8.5-13.198 8.84c-.597.4-1.381.4-1.979 0L4.479 8.5a1.613 1.613 0 0 1-.482-.447c-.129-.181-.224-.39-.277-.613s-.064-.456-.032-.684c.035-.229.111-.448.225-.643s.263-.362.437-.491c.177-.133.377-.225.587-.271s.426-.046.636.001c.211.045.409.137.587.268L18.667 14l12.507-8.38c.178-.132.377-.224.588-.269s.426-.045.636.003c.208.045.406.136.582.267s.327.299.443.495c.113.194.189.411.222.639s.023.46-.029.684a1.754 1.754 0 0 1-.279.613 1.605 1.605 0 0 1-.482.448z"/></symbol><symbol id="icon-maintain" viewBox="0 0 32 32"><path d="m31.536 29.264-2.272 2.272a1.6 1.6 0 0 1-2.256 0L8 12.56a6.1 6.1 0 0 1-1.6.24A6.403 6.403 0 0 1 .071 7.321a6.406 6.406 0 0 1 .281-3l4.064 4.064 3.968-3.968L4.32.353a6.406 6.406 0 0 1 5.796.842 6.403 6.403 0 0 1 2.683 5.206 6.1 6.1 0 0 1-.24 1.6l18.976 19.008a1.6 1.6 0 0 1 0 2.256zM.464 27.008a1.6 1.6 0 0 0 0 2.256l2.272 2.272a1.6 1.6 0 0 0 2.256 0l8.752-8.736-4.528-4.528-8.752 8.736zM28.8 0l-6.4 3.2v3.2l-3.472 3.472 3.2 3.2L25.6 9.6h3.2L32 3.2 28.8 0z"/></symbol><symbol id="icon-open-full" viewBox="0 0 32 32"><path d="M4.48 25.28 0 20.8V32h11.2l-4.48-4.48 6.944-6.912-2.272-2.272L4.48 25.28zM27.52 6.72 32 11.2V0H20.8l4.48 4.48-6.944 6.912 2.272 2.272L27.52 6.72zm-2.24 20.8L20.8 32H32V20.8l-4.48 4.48-6.912-6.944-2.272 2.272 6.928 6.928.016-.016zM6.72 4.48 11.2 0H0v11.2l4.48-4.48 6.912 6.944 2.272-2.272L6.72 4.48z"/></symbol><symbol id="icon-polygon-down" viewBox="0 0 55 32"><path d="M27.429 32 3.675 1.143h47.508L27.429 32z"/></symbol><symbol id="icon-polygon-up" viewBox="0 0 55 32"><path d="m27.429 0 23.754 30.857H3.675L27.429 0z"/></symbol><symbol id="icon-phone" viewBox="0 0 24 24"><path fill-rule="evenodd" clip-rule="evenodd" d="M4.5 3a3 3 0 0 1 3-3h9a3 3 0 0 1 3 3v18a3 3 0 0 1-3 3h-9a3 3 0 0 1-3-3V3Zm9 16.5a1.5 1.5 0 1 1-3 0 1.5 1.5 0 0 1 3 0Z"/></symbol><symbol id="icon-geotag" viewBox="0 0 24 24"><path d="M12 0a8.394 8.394 0 0 0-8.4 8.4C3.6 14.7 12 24 12 24s8.4-9.3 8.4-15.6C20.4 3.756 16.644 0 12 0Zm0 11.4a3 3 0 1 1 0-6 3 3 0 0 1 0 6Z"/></symbol><symbol id="icon-e-mail" viewBox="0 0 24 24"><path d="M20.4 3.6H3.6c-1.154 0-2.09.946-2.09 2.1L1.5 18.3c0 1.156.946 2.1 2.1 2.1h16.8c1.154 0 2.1-.944 2.1-2.1V5.7c0-1.154-.946-2.1-2.1-2.1Zm-.42 4.463-7.423 4.64a1.062 1.062 0 0 1-1.114 0L4.02 8.064a.893.893 0 1 1 .946-1.512L12 10.95l7.036-4.4a.893.893 0 1 1 .944 1.513Z"/></symbol><symbol id="icon-clock" viewBox="0 0 24 24"><path fill-rule="evenodd" clip-rule="evenodd" d="M12.001 21.6a9.6 9.6 0 1 0 0-19.2 9.6 9.6 0 0 0 0 19.2Zm1.2-14.4a1.2 1.2 0 1 0-2.4 0V12c0 .318.127.623.352.848l3.393 3.395a1.2 1.2 0 1 0 1.698-1.698l-3.043-3.042V7.2Z"/></symbol><symbol id="icon-refine" viewBox="0 0 32 32"><path d="M29.103 6.291c-.012-.012-2.412 2.361-7.188 7.129l-3.351-3.351 7.141-7.141a9.574 9.574 0 0 0-11.716 1.449 9.64 9.64 0 0 0-2.503 9.308l.071.264L.366 25.136a.633.633 0 0 0 0 .892l5.582 5.581a.633.633 0 0 0 .892 0l11.183-11.183.264.071a9.643 9.643 0 0 0 9.316-2.499 9.636 9.636 0 0 0 1.5-11.708z"/></symbol><symbol id="icon-test" viewBox="0 0 36 32"><path d="M32 0H3.556A3.566 3.566 0 0 0 0 3.556v24.889c0 1.956 1.6 3.556 3.556 3.556H32c1.956 0 3.556-1.6 3.556-3.556V3.556C35.556 1.6 33.956 0 32 0zM14.222 24.889H5.333v-3.556h8.889v3.556zm0-7.111H5.333v-3.556h8.889v3.556zm0-7.111H5.333V7.111h8.889v3.556zm8.569 10.666-5.013-5.049 2.507-2.507 2.507 2.524 5.636-5.636 2.524 2.524-8.16 8.142z"/></symbol><symbol id="icon-vector-right" viewBox="0 0 34 32"><path d="M32.418 14.942 15.89.596a.705.705 0 0 0-.459-.171h-3.872a.354.354 0 0 0-.327.228.351.351 0 0 0 .1.385l15.322 13.3H1.051a.35.35 0 0 0-.351.35v2.625c0 .193.157.35.35.35h25.598l-15.322 13.3c-.054.046-.093.108-.11.177s-.014.142.01.208a.346.346 0 0 0 .327.228h4.003a.335.335 0 0 0 .227-.088L32.416 17.06a1.386 1.386 0 0 0 .482-1.06 1.425 1.425 0 0 0-.481-1.06l.003.001z"/></symbol><symbol id="icon-vector-up" viewBox="0 0 32 32"><path d="M14.796.479.307 16.904a.693.693 0 0 0-.172.457v3.848c0 .322.407.47.619.226L14.187 6.209v25.442c0 .191.159.348.354.348h2.651a.353.353 0 0 0 .354-.348V6.213l13.433 15.226c.217.243.619.096.619-.226v-3.978a.332.332 0 0 0-.088-.226L16.937.479a1.422 1.422 0 0 0-1.07-.48 1.435 1.435 0 0 0-1.07.48z"/></symbol><symbol id="icon-vector-white" viewBox="0 0 27 32"><path fill="#fff" style="fill:var(--color3,#fff)" d="M26.267 14.912 12.579.175a.521.521 0 0 0-.38-.175H8.993c-.268 0-.391.413-.188.629l12.688 13.663H.291c-.159 0-.29.162-.29.36v2.697c0 .198.13.36.29.36H21.49L8.802 31.372c-.203.22-.08.629.188.629h3.315a.247.247 0 0 0 .188-.09l13.775-14.823c.125-.135.226-.302.295-.49a1.738 1.738 0 0 0 0-1.196 1.445 1.445 0 0 0-.295-.49z"/></symbol></defs></svg>