<svg width="32" height="32" viewBox="0 0 32 32" fill="none" xmlns="http://www.w3.org/2000/svg">
<path d="M16.0001 11.8347C13.7064 11.8347 11.8345 13.7066 11.8345 16.0003C11.8345 18.2941 13.7064 20.166 16.0001 20.166C18.2939 20.166 20.1658 18.2941 20.1658 16.0003C20.1658 13.7066 18.2939 11.8347 16.0001 11.8347ZM28.4939 16.0003C28.4939 14.2753 28.5095 12.566 28.4126 10.8441C28.3158 8.84409 27.8595 7.06909 26.397 5.60659C24.9314 4.14097 23.1595 3.68784 21.1595 3.59097C19.4345 3.49409 17.7251 3.50972 16.0033 3.50972C14.2783 3.50972 12.5689 3.49409 10.847 3.59097C8.84702 3.68784 7.07202 4.14409 5.60952 5.60659C4.1439 7.07222 3.69077 8.84409 3.5939 10.8441C3.49702 12.5691 3.51265 14.2785 3.51265 16.0003C3.51265 17.7222 3.49702 19.4347 3.5939 21.1566C3.69077 23.1566 4.14702 24.9316 5.60952 26.3941C7.07515 27.8597 8.84702 28.3128 10.847 28.4097C12.572 28.5066 14.2814 28.491 16.0033 28.491C17.7283 28.491 19.4376 28.5066 21.1595 28.4097C23.1595 28.3128 24.9345 27.8566 26.397 26.3941C27.8626 24.9285 28.3158 23.1566 28.4126 21.1566C28.5126 19.4347 28.4939 17.7253 28.4939 16.0003ZM16.0001 22.4097C12.4533 22.4097 9.59077 19.5472 9.59077 16.0003C9.59077 12.4535 12.4533 9.59097 16.0001 9.59097C19.547 9.59097 22.4095 12.4535 22.4095 16.0003C22.4095 19.5472 19.547 22.4097 16.0001 22.4097ZM22.672 10.8253C21.8439 10.8253 21.1751 10.1566 21.1751 9.32847C21.1751 8.50034 21.8439 7.83159 22.672 7.83159C23.5001 7.83159 24.1689 8.50034 24.1689 9.32847C24.1691 9.52511 24.1306 9.71987 24.0555 9.90159C23.9803 10.0833 23.8701 10.2484 23.731 10.3875C23.592 10.5265 23.4269 10.6368 23.2451 10.7119C23.0634 10.787 22.8687 10.8256 22.672 10.8253Z" fill="black"/>
</svg>
