<svg width="10" height="9" viewBox="0 0 10 9" fill="none" xmlns="http://www.w3.org/2000/svg">
<g clip-path="url(#clip0_81_4511)">
<path d="M9.85095 4.194L4.71795 0.05C4.67765 0.0177365 4.62758 0.000108398 4.57595 0L3.37295 0C3.27295 0 3.22595 0.116 3.30295 0.177L8.05995 4.02H0.110953C0.0509531 4.02 0.00195312 4.065 0.00195312 4.12V4.88C0.00195312 4.935 0.0509531 4.98 0.110953 4.98H8.06095L3.30095 8.823C3.22495 8.885 3.27095 9 3.37095 9H4.61495C4.64049 9.00013 4.66527 8.99128 4.68495 8.975L9.85095 4.805C9.89711 4.76784 9.93464 4.7211 9.96095 4.668C10.0006 4.58852 10.0113 4.49773 9.99119 4.41122C9.97111 4.32471 9.92153 4.2479 9.85095 4.194Z" fill="black"/>
</g>
<defs>
<clipPath id="clip0_81_4511">
<rect width="10" height="9" fill="white"/>
</clipPath>
</defs>
</svg>
