<svg width="41" height="40" viewBox="0 0 41 40" fill="none" xmlns="http://www.w3.org/2000/svg">
<path d="M22.297 39.4008L40.7184 18.8689C40.8588 18.7113 40.9375 18.5102 40.9375 18.2983L40.9375 13.4887C40.9375 13.0865 40.4206 12.9017 40.151 13.2061L23.0723 32.238L23.0723 0.434766C23.0723 0.195644 22.8701 -7.89752e-07 22.6229 -8.00557e-07L19.2521 -9.47899e-07C19.0049 -9.58704e-07 18.8027 0.195644 18.8027 0.434766L18.8027 32.2326L1.72401 13.2006C1.44873 12.8963 0.937499 13.0811 0.937499 13.4832L0.937499 18.4559C0.937499 18.5591 0.976825 18.6624 1.04986 18.7385L19.5779 39.4008C19.7471 39.5889 19.956 39.7398 20.1905 39.8431C20.425 39.9465 20.6798 40 20.9375 40C21.1952 40 21.45 39.9465 21.6845 39.8431C21.919 39.7398 22.1279 39.5889 22.297 39.4008Z" fill="black"/>
</svg>
