<svg width="56" height="56" viewBox="0 0 56 56" fill="none" xmlns="http://www.w3.org/2000/svg">
<g clip-path="url(#clip0_416_3623)">
<path d="M48.523 28.677L27.8625 10.7447C27.703 10.607 27.4992 10.5313 27.2885 10.5312H22.448C22.359 10.5313 22.2721 10.5586 22.1991 10.6095C22.1261 10.6603 22.0704 10.7324 22.0395 10.8158C22.0086 10.8993 22.0041 10.9902 22.0264 11.0764C22.0487 11.1626 22.0969 11.2398 22.1645 11.2977L41.3165 27.9227H9.3125C9.19647 27.9227 9.08519 27.9688 9.00314 28.0509C8.92109 28.1329 8.875 28.2442 8.875 28.3602V31.6415C8.875 31.883 9.071 32.079 9.3125 32.079H41.3095L22.1575 48.704C22.0899 48.7619 22.0417 48.8392 22.0194 48.9253C21.9971 49.0115 22.0016 49.1024 22.0325 49.1859C22.0634 49.2694 22.1191 49.3414 22.1921 49.3923C22.2651 49.4432 22.352 49.4705 22.441 49.4705H27.4443C27.5493 49.471 27.6506 49.4316 27.7277 49.3602L48.5195 31.3247C48.7096 31.1606 48.8619 30.9571 48.9658 30.7284C49.0698 30.4997 49.1229 30.2512 49.1215 30C49.1205 29.7492 49.0663 29.5014 48.9625 29.2731C48.8588 29.0447 48.7078 28.841 48.5195 28.6752L48.523 28.677Z" fill="black"/>
</g>
<defs>
<clipPath id="clip0_416_3623">
<rect width="56" height="56" fill="white"/>
</clipPath>
</defs>
</svg>
