<svg width="22" height="22" viewBox="0 0 22 22" fill="none" xmlns="http://www.w3.org/2000/svg">
<path d="M14.5 10C17 10 19 12 19 14.5C19 15.38 18.75 16.21 18.31 16.9L21.39 20L20 21.39L16.88 18.32C16.19 18.75 15.37 19 14.5 19C12 19 10 17 10 14.5C10 12 12 10 14.5 10ZM14.5 12C13.837 12 13.2011 12.2634 12.7322 12.7322C12.2634 13.2011 12 13.837 12 14.5C12 15.163 12.2634 15.7989 12.7322 16.2678C13.2011 16.7366 13.837 17 14.5 17C15.163 17 15.7989 16.7366 16.2678 16.2678C16.7366 15.7989 17 15.163 17 14.5C17 13.837 16.7366 13.2011 16.2678 12.7322C15.7989 12.2634 15.163 12 14.5 12ZM8 0H12C12.5304 0 13.0391 0.210714 13.4142 0.585786C13.7893 0.960859 14 1.46957 14 2V4H18C18.5304 4 19.0391 4.21071 19.4142 4.58579C19.7893 4.96086 20 5.46957 20 6V11.03C19.4144 10.101 18.6026 9.3357 17.6407 8.80579C16.6788 8.27587 15.5982 7.99862 14.5 8C12.7761 8 11.1228 8.68482 9.90381 9.90381C8.68482 11.1228 8 12.7761 8 14.5C8 16.25 8.69 17.83 9.81 19H2C1.46957 19 0.960859 18.7893 0.585786 18.4142C0.210714 18.0391 0 17.5304 0 17V6C0 4.89 0.89 4 2 4H6V2C6 0.89 6.89 0 8 0ZM12 4V2H8V4H12Z" fill="black"/>
</svg>
