<svg width="24" height="24" viewBox="0 0 24 24" fill="none" xmlns="http://www.w3.org/2000/svg">
<g clip-path="url(#clip0_68_4786)">
<path fill-rule="evenodd" clip-rule="evenodd" d="M12.001 21.6001C13.2618 21.6001 14.5102 21.3518 15.675 20.8693C16.8398 20.3868 17.8981 19.6797 18.7896 18.7882C19.6811 17.8967 20.3883 16.8383 20.8708 15.6735C21.3533 14.5087 21.6016 13.2603 21.6016 11.9995C21.6016 10.7388 21.3533 9.49033 20.8708 8.32553C20.3883 7.16074 19.6811 6.10237 18.7896 5.21088C17.8981 4.31938 16.8398 3.6122 15.675 3.12973C14.5102 2.64725 13.2618 2.39893 12.001 2.39893C9.45475 2.39893 7.0128 3.41041 5.21234 5.21088C3.41188 7.01134 2.40039 9.45329 2.40039 11.9995C2.40039 14.5458 3.41188 16.9877 5.21234 18.7882C7.0128 20.5886 9.45475 21.6001 12.001 21.6001ZM13.201 7.20013C13.201 6.88187 13.0746 6.57664 12.8495 6.3516C12.6245 6.12655 12.3192 6.00013 12.001 6.00013C11.6827 6.00013 11.3775 6.12655 11.1525 6.3516C10.9274 6.57664 10.801 6.88187 10.801 7.20013V12.0001C10.8011 12.3184 10.9275 12.6235 11.1526 12.8485L14.5462 16.2433C14.7714 16.4685 15.0768 16.595 15.3952 16.595C15.7136 16.595 16.019 16.4685 16.2442 16.2433C16.4694 16.0182 16.5959 15.7128 16.5959 15.3943C16.5959 15.0759 16.4694 14.7705 16.2442 14.5453L13.201 11.5033V7.20013Z" fill="black"/>
</g>
<defs>
<clipPath id="clip0_68_4786">
<rect width="19.2" height="19.2" fill="white" transform="translate(2.40039 2.3999)"/>
</clipPath>
</defs>
</svg>
