<svg width="19" height="18" viewBox="0 0 19 18" fill="none" xmlns="http://www.w3.org/2000/svg">
<path d="M13.24 8.50987L14.81 6.93987L11.06 3.18987L9.49 4.75987L5.35 0.629868C4.57 -0.150132 3.3 -0.150132 2.52 0.629868L0.62 2.52987C-0.16 3.30987 -0.16 4.57987 0.62 5.35987L4.75 9.48987L0 14.2499V17.9999H3.75L8.51 13.2399L12.64 17.3699C13.59 18.3199 14.87 17.9699 15.47 17.3699L17.37 15.4699C18.15 14.6899 18.15 13.4199 17.37 12.6399L13.24 8.50987ZM6.18 8.06987L2.04 3.93987L3.93 2.03987L5.2 3.30987L4.02 4.49987L5.43 5.90987L6.62 4.71987L8.07 6.16987L6.18 8.06987ZM14.06 15.9599L9.93 11.8299L11.83 9.92987L13.28 11.3799L12.09 12.5699L13.5 13.9799L14.69 12.7899L15.96 14.0599L14.06 15.9599ZM17.71 4.03987C17.8027 3.94735 17.8762 3.83747 17.9264 3.71649C17.9766 3.59552 18.0024 3.46584 18.0024 3.33487C18.0024 3.2039 17.9766 3.07422 17.9264 2.95324C17.8762 2.83227 17.8027 2.72238 17.71 2.62987L15.37 0.289868C14.9 -0.180132 14.25 -0.000132293 13.96 0.289868L12.13 2.11987L15.88 5.86987L17.71 4.03987Z" fill="black"/>
</svg>
