<svg width="24" height="24" viewBox="0 0 24 24" fill="none" xmlns="http://www.w3.org/2000/svg">
<path d="M20.4 3.6001H3.6C2.4456 3.6001 1.5108 4.5457 1.5108 5.7001L1.5 18.3001C1.5 19.4557 2.4456 20.4001 3.6 20.4001H20.4C21.5544 20.4001 22.5 19.4557 22.5 18.3001V5.7001C22.5 4.5457 21.5544 3.6001 20.4 3.6001ZM19.98 8.0629L12.5568 12.7033C12.3894 12.8064 12.1966 12.861 12 12.861C11.8034 12.861 11.6106 12.8064 11.4432 12.7033L4.02 8.0641C3.91429 8.00517 3.82167 7.92536 3.74776 7.82952C3.67385 7.73369 3.62019 7.62383 3.59006 7.50662C3.55992 7.3894 3.55393 7.26729 3.57244 7.14769C3.59096 7.02809 3.6336 6.9135 3.69777 6.81089C3.76195 6.70828 3.84631 6.61979 3.94574 6.55079C4.04517 6.48179 4.15759 6.43373 4.27617 6.40953C4.39475 6.38532 4.51701 6.38548 4.63553 6.40999C4.75405 6.4345 4.86635 6.48285 4.9656 6.5521L12 10.9501L19.0356 6.5509C19.1348 6.48076 19.2474 6.43161 19.3663 6.40648C19.4851 6.38134 19.6079 6.38075 19.7271 6.40472C19.8462 6.4287 19.9592 6.47675 20.0591 6.54592C20.159 6.61509 20.2438 6.70394 20.3081 6.80701C20.3725 6.91008 20.4152 7.02521 20.4335 7.14534C20.4518 7.26548 20.4454 7.38809 20.4147 7.50566C20.384 7.62324 20.3296 7.73331 20.2548 7.82913C20.1801 7.92494 20.0866 8.00449 19.98 8.0629Z" fill="black"/>
</svg>
