<svg width="32" height="32" viewBox="0 0 32 32" fill="none" xmlns="http://www.w3.org/2000/svg">
<path d="M27.2 4H4.8C3.26 4 2.01355 5.35 2.01355 7L2 25C2 26.65 3.26 28 4.8 28H27.2C28.74 28 30 26.65 30 25V7C30 5.35 28.74 4 27.2 4ZM26.64 10.375L16.7415 17.005C16.2935 17.305 15.7055 17.305 15.2575 17.005L5.36 10.375C5.22044 10.2914 5.09756 10.1774 4.99871 10.04C4.90161 9.90424 4.83088 9.74775 4.79094 9.58032C4.75099 9.41289 4.7427 9.23814 4.76658 9.067C4.79252 8.89525 4.84999 8.73122 4.93543 8.58502C5.02087 8.43882 5.13248 8.31357 5.26335 8.217C5.39637 8.11755 5.54593 8.04839 5.70332 8.01354C5.86071 7.97869 6.02279 7.97884 6.18013 8.014C6.33819 8.048 6.48723 8.117 6.62 8.215L16 14.5L25.38 8.215C25.5133 8.11593 25.6631 8.04723 25.8207 8.01289C25.9782 7.97856 26.1404 7.97927 26.2977 8.015C26.4537 8.04908 26.602 8.11721 26.734 8.21541C26.8659 8.31362 26.9789 8.43994 27.0663 8.587C27.1511 8.73228 27.2077 8.89546 27.2326 9.06622C27.2575 9.23697 27.25 9.41158 27.2108 9.579C27.1704 9.7467 27.0991 9.90331 27.0013 10.039C26.9027 10.177 26.7798 10.2913 26.64 10.375Z" fill="black"/>
</svg>
