<svg width="32" height="32" viewBox="0 0 32 32" fill="none" xmlns="http://www.w3.org/2000/svg">
<path d="M27.7338 3.2002H3.20046C2.61046 3.2002 2.13379 3.67686 2.13379 4.26686V28.8002C2.13379 29.3902 2.61046 29.8669 3.20046 29.8669H27.7338C28.3238 29.8669 28.8005 29.3902 28.8005 28.8002V4.26686C28.8005 3.67686 28.3238 3.2002 27.7338 3.2002ZM10.0438 25.9235H6.08712V13.1969H10.0438V25.9235ZM8.06712 11.4569C7.61354 11.4569 7.17015 11.3224 6.79301 11.0704C6.41588 10.8184 6.12194 10.4602 5.94836 10.0411C5.77478 9.6221 5.72937 9.16098 5.81785 8.71612C5.90634 8.27126 6.12476 7.86263 6.44549 7.5419C6.76622 7.22117 7.17485 7.00275 7.61972 6.91426C8.06458 6.82577 8.52569 6.87119 8.94474 7.04476C9.36379 7.21834 9.72196 7.51228 9.97396 7.88942C10.226 8.26656 10.3605 8.70995 10.3605 9.16353C10.3571 10.4302 9.33046 11.4569 8.06712 11.4569ZM24.8571 25.9235H20.9038V19.7335C20.9038 18.2569 20.8771 16.3602 18.8471 16.3602C16.7905 16.3602 16.4738 17.9669 16.4738 19.6269V25.9235H12.5238V13.1969H16.3171V14.9369H16.3705C16.8971 13.9369 18.1871 12.8802 20.1138 12.8802C24.1205 12.8802 24.8571 15.5169 24.8571 18.9435V25.9235Z" fill="black"/>
</svg>
