<svg width="33" height="32" viewBox="0 0 33 32" fill="none" xmlns="http://www.w3.org/2000/svg">
<path d="M5.55766 3.20022H26.9026C27.0763 3.19922 27.2484 3.23269 27.409 3.29867C27.5696 3.36465 27.7155 3.46185 27.8382 3.58462C27.961 3.70739 28.0582 3.8533 28.1242 4.0139C28.1902 4.1745 28.2236 4.34659 28.2226 4.52022V25.8802C28.2221 26.2301 28.0829 26.5656 27.8355 26.813C27.588 27.0605 27.2526 27.1997 26.9026 27.2002H20.7826V17.9002H23.9026L24.3676 14.2852H20.7826V11.9752C20.7826 10.9252 21.0826 10.2052 22.5826 10.2052H24.5026V6.96521C24.1726 6.92021 23.0326 6.83021 21.7126 6.83021C18.9376 6.83021 17.0476 8.51021 17.0476 11.6152V14.2852H13.9126V17.9002H17.0476V27.2002H5.55766C5.20618 27.2002 4.86887 27.0616 4.61893 26.8145C4.369 26.5674 4.22661 26.2317 4.22266 25.8802V4.52022C4.22266 3.78522 4.82266 3.20022 5.55766 3.20022Z" fill="black"/>
</svg>
