<svg width="24" height="24" viewBox="0 0 24 24" fill="none" xmlns="http://www.w3.org/2000/svg">
<g clip-path="url(#clip0_68_4776)">
<path d="M11.9996 0C7.35561 0 3.59961 3.756 3.59961 8.4C3.59961 14.7 11.9996 24 11.9996 24C11.9996 24 20.3996 14.7 20.3996 8.4C20.3996 3.756 16.6436 0 11.9996 0ZM11.9996 11.4C11.204 11.4 10.4409 11.0839 9.87829 10.5213C9.31568 9.95871 8.99961 9.19565 8.99961 8.4C8.99961 7.60435 9.31568 6.84129 9.87829 6.27868C10.4409 5.71607 11.204 5.4 11.9996 5.4C12.7953 5.4 13.5583 5.71607 14.1209 6.27868C14.6835 6.84129 14.9996 7.60435 14.9996 8.4C14.9996 9.19565 14.6835 9.95871 14.1209 10.5213C13.5583 11.0839 12.7953 11.4 11.9996 11.4Z" fill="black"/>
</g>
<defs>
<clipPath id="clip0_68_4776">
<rect width="16.8" height="24" fill="white" transform="translate(3.59961)"/>
</clipPath>
</defs>
</svg>
