<svg width="40" height="40" viewBox="0 0 40 40" fill="none" xmlns="http://www.w3.org/2000/svg">
<g clip-path="url(#clip0_22_2891)">
<path d="M39.4 18.64L18.87 0.22C18.7136 0.0789656 18.5107 0.00062627 18.3 0L13.49 0C13.087 0 12.903 0.517 13.207 0.787L32.239 17.865H0.435042C0.317806 17.8674 0.206267 17.916 0.124769 18.0003C0.0432715 18.0846 -0.00156663 18.1978 4.18268e-05 18.315V21.685C4.18268e-05 21.933 0.196042 22.135 0.435042 22.135H32.233L13.2 39.214C12.895 39.489 13.08 40 13.482 40H18.455C18.5599 40.0001 18.6608 39.96 18.737 39.888L39.401 21.36C39.5901 21.1892 39.7407 20.9803 39.843 20.747C39.9467 20.5116 40.0003 20.2572 40.0003 20C40.0003 19.7428 39.9467 19.4884 39.843 19.253C39.7408 19.0197 39.5891 18.8107 39.4 18.64Z" fill="#CDCDCD"/>
</g>
<defs>
<clipPath id="clip0_22_2891">
<rect width="40" height="40" fill="white"/>
</clipPath>
</defs>
</svg>
