<svg width="32" height="32" viewBox="0 0 32 32" fill="none" xmlns="http://www.w3.org/2000/svg">
<path d="M4.6242 3.2002H27.3922C28.1762 3.2002 28.8002 3.8242 28.8002 4.6082V27.3922C28.8002 28.1602 28.1762 28.8002 27.3922 28.8002H20.8642V18.8802H24.1922L24.6882 15.0242H20.8642V12.5602C20.8642 11.4402 21.1842 10.6722 22.7842 10.6722H24.8322V7.2162C24.4802 7.1682 23.2642 7.0722 21.8562 7.0722C18.8962 7.0722 16.8802 8.8642 16.8802 12.1762V15.0242H13.5362V18.8802H16.8802V28.8002H4.6242C4.24928 28.8002 3.88949 28.6524 3.62289 28.3888C3.35629 28.1252 3.20441 27.7671 3.2002 27.3922V4.6082C3.2002 3.8242 3.8402 3.2002 4.6242 3.2002Z" fill="black"/>
</svg>
