<svg width="32" height="32" viewBox="0 0 32 32" fill="none" xmlns="http://www.w3.org/2000/svg">
<path d="M27.04 4H4.96C4.429 4 4 4.429 4 4.96V27.04C4 27.571 4.429 28 4.96 28H27.04C27.571 28 28 27.571 28 27.04V4.96C28 4.429 27.571 4 27.04 4ZM11.119 24.451H7.558V12.997H11.119V24.451ZM9.34 11.431C8.93166 11.4313 8.53243 11.3103 8.1929 11.0835C7.85337 10.8566 7.58881 10.5341 7.43275 10.1567C7.2769 9.77958 7.23618 9.36472 7.31572 8.96445C7.39527 8.56418 7.59152 8.19641 7.87975 7.9075C8.09547 7.6915 8.35645 7.52609 8.64386 7.42319C8.93126 7.32028 9.23793 7.28246 9.54172 7.31246C9.84551 7.34245 10.1389 7.4395 10.4006 7.59662C10.6623 7.75373 10.8859 7.96699 11.0552 8.221C11.2817 8.56075 11.4033 8.95975 11.4033 9.36775C11.4023 9.91485 11.1845 10.4393 10.7976 10.8261C10.4108 11.213 9.88635 11.4308 9.33925 11.4318L9.34 11.431ZM24.451 24.451H20.893V18.88C20.893 17.551 20.869 15.844 19.042 15.844C17.191 15.844 16.906 17.29 16.906 18.784V24.451H13.351V12.997H16.765V14.563H16.813C17.287 13.663 18.448 12.712 20.182 12.712C23.788 12.712 24.451 15.085 24.451 18.169V24.451Z" fill="black"/>
</svg>
