<svg width="54" height="44" viewBox="0 0 54 44" fill="none" xmlns="http://www.w3.org/2000/svg">
<path d="M4.43931 4.44922H0V30.0522H10.0066V25.6027H4.43931V4.44922Z" fill="black"/>
<path d="M19.7243 0H4.44141V4.44952H17.2499L22.3078 12.8015L17.2499 21.1535H10.0087V25.603H19.7243L27.5113 12.8015L19.7243 0Z" fill="black"/>
<path d="M9.97389 34.9753C10.3014 34.9024 10.6289 34.8659 11.0291 34.8294C11.393 34.793 11.7933 34.793 12.1572 34.793C12.5574 34.793 12.9577 34.8294 13.3216 34.9024C13.7218 34.9753 14.0857 35.0847 14.3768 35.3036C14.7043 35.4859 14.959 35.7777 15.141 36.1059C15.3229 36.4342 15.4321 36.9083 15.4321 37.4554C15.4321 37.9295 15.3593 38.3672 15.1773 38.6954C14.9954 39.0237 14.7771 39.3154 14.486 39.5343C14.1949 39.7531 13.8674 39.9354 13.5035 40.0084C13.1396 40.1178 12.7757 40.1543 12.3755 40.1543H12.1935C12.1208 40.1543 12.0116 40.1543 11.9388 40.1543C11.8661 40.1543 11.7569 40.1543 11.6841 40.1543C11.6113 40.1543 11.5386 40.1543 11.5022 40.1178V42.8532H9.9375L9.97389 34.9753ZM12.3027 36.1059C12.1572 36.1059 12.0116 36.1059 11.8661 36.1059C11.7205 36.1059 11.6113 36.1424 11.5386 36.1424V38.6954C11.575 38.6954 11.6113 38.6954 11.6841 38.7319C11.7569 38.7319 11.7933 38.7319 11.8661 38.7319C11.9388 38.7319 12.0116 38.7319 12.048 38.7319C12.1208 38.7319 12.1572 38.7319 12.1935 38.7319C12.4119 38.7319 12.5938 38.6954 12.8121 38.6589C12.9941 38.6225 13.176 38.5495 13.358 38.4401C13.5035 38.3307 13.6491 38.1848 13.7218 38.0025C13.831 37.8201 13.8674 37.6013 13.8674 37.273C13.8674 37.0177 13.831 36.8354 13.7218 36.653C13.6491 36.5071 13.5035 36.3612 13.358 36.2518C13.2124 36.1424 13.0305 36.0695 12.8485 36.033C12.6666 36.1424 12.4846 36.1059 12.3027 36.1059Z" fill="black"/>
<path d="M15.8984 39.9731C15.8984 39.499 15.9712 39.0613 16.1168 38.6966C16.2623 38.3319 16.4806 38.0036 16.7354 37.7483C16.9901 37.493 17.3176 37.3107 17.6814 37.1648C18.0453 37.0189 18.4456 36.9824 18.9186 36.9824C19.3917 36.9824 19.8283 37.0554 20.1922 37.2013C20.5561 37.3471 20.8836 37.5295 21.1383 37.8213C21.393 38.0766 21.5749 38.4048 21.7205 38.7695C21.866 39.1342 21.9024 39.5354 21.9024 40.0096C21.9024 40.4837 21.8296 40.9213 21.6841 41.2861C21.5385 41.6508 21.3202 41.979 21.0655 42.2343C20.8108 42.4896 20.4833 42.672 20.1194 42.8179C19.7555 42.9637 19.3553 43.0002 18.8822 43.0002C18.4092 43.0002 17.9725 42.9273 17.6087 42.7814C17.2448 42.6355 16.9173 42.4531 16.6626 42.1614C16.4079 41.9061 16.2259 41.5778 16.0804 41.2131C15.9712 40.8484 15.8984 40.4107 15.8984 39.9731ZM17.4267 39.9731C17.4267 40.2284 17.4631 40.4472 17.5359 40.666C17.6087 40.8849 17.7178 41.0672 17.827 41.2131C17.9725 41.359 18.1181 41.5049 18.3 41.5778C18.482 41.6508 18.7003 41.7237 18.9186 41.7237C19.3553 41.7237 19.7192 41.5778 19.9739 41.3225C20.265 41.0308 20.3741 40.5931 20.3741 40.0096C20.3741 39.499 20.2286 39.0613 19.9739 38.7331C19.7192 38.4048 19.3553 38.2589 18.8822 38.2589C18.6639 38.2589 18.482 38.2954 18.3 38.3683C18.1181 38.4413 17.9725 38.5507 17.827 38.6966C17.6814 38.8425 17.6087 39.0248 17.4995 39.2437C17.4631 39.426 17.4267 39.6813 17.4267 39.9731Z" fill="black"/>
<path d="M26.09 38.5148L26.9633 40.9949H26.9997L27.1089 40.0101L27.5819 37.1654L28.8919 37.1289L27.7639 42.8185H26.272L25.6534 40.5572H25.5806L24.8892 42.8185H23.361L22.1602 37.1654H23.6157L24.1979 40.3019L24.2706 40.9949H24.3434L25.1803 38.5148H26.09Z" fill="black"/>
<path d="M34.7145 42.1978C34.6054 42.2708 34.4962 42.3802 34.3507 42.4531C34.2051 42.5261 34.0232 42.6355 33.8048 42.7084C33.5865 42.7814 33.3682 42.8543 33.1135 42.8908C32.8588 42.9273 32.6041 42.9637 32.3129 42.9637C31.8399 42.9637 31.4033 42.8908 31.003 42.7449C30.6391 42.599 30.3116 42.4167 30.0205 42.1614C29.7658 41.9061 29.5475 41.5778 29.4019 41.2131C29.2564 40.8484 29.1836 40.4472 29.1836 39.9731C29.1836 39.4625 29.2564 39.0248 29.4383 38.6601C29.5839 38.2954 29.8022 37.9672 30.0933 37.7119C30.3844 37.4566 30.6755 37.2742 31.0758 37.1648C31.4396 37.0554 31.8399 36.9824 32.2766 36.9824C32.5677 36.9824 32.8588 37.0189 33.1499 37.0918C33.441 37.1648 33.7321 37.3107 33.9868 37.493C34.2415 37.6754 34.4598 37.9307 34.6054 38.2225C34.7509 38.5142 34.8601 38.9154 34.8601 39.3895C34.8601 39.7178 34.8237 40.0825 34.7509 40.4472H30.6755C30.6755 40.7025 30.7483 40.8849 30.821 41.0672C30.9302 41.2496 31.0394 41.359 31.1849 41.4684C31.3305 41.5778 31.5124 41.6508 31.7307 41.6872C31.9127 41.7237 32.131 41.7602 32.3857 41.7602C32.8224 41.7602 33.2226 41.7237 33.5137 41.6143C33.8048 41.5049 34.0232 41.3955 34.2051 41.2131L34.7145 42.1978ZM32.2766 38.1495C32.0946 38.1495 31.9127 38.186 31.7307 38.2225C31.5488 38.2589 31.4033 38.3683 31.2577 38.4413C31.1122 38.5507 31.003 38.6601 30.9302 38.8425C30.8574 38.9884 30.7847 39.1707 30.7847 39.3531H33.5501C33.5501 38.9884 33.441 38.6601 33.2226 38.4413C33.0043 38.2589 32.6768 38.1495 32.2766 38.1495Z" fill="black"/>
<path d="M35.5508 41.5414H36.9335V38.3683H35.5508V37.1283H38.0979L38.2799 37.8577H38.3163C38.5346 37.6024 38.7529 37.3836 39.044 37.2377C39.2987 37.0554 39.6262 36.9824 39.9901 36.9824C40.4267 36.9824 40.7906 37.1648 41.0453 37.493C41.3001 37.8213 41.4456 38.3683 41.4456 39.1707H40.1356C40.1356 38.9154 40.0993 38.6966 40.0265 38.5872C39.9537 38.4778 39.8082 38.4048 39.6626 38.4048C39.3715 38.4048 39.1168 38.4778 38.9348 38.6236C38.7529 38.7695 38.6074 38.9519 38.4618 39.1342V41.5414H40.8998V42.7814H35.5872L35.5508 41.5414Z" fill="black"/>
<path d="M41.4453 34.8672H43.8469V39.3897H44.1744L46.0302 37.1284H47.7404L45.4844 39.7179L46.9399 41.5415H47.9951V42.7815H46.1757L44.2472 40.4473H43.8469V42.7815L42.355 42.818V36.1072H41.4453V34.8672Z" fill="black"/>
<path d="M47.9219 34.8672H50.2143V37.7484H50.2507C50.4326 37.4931 50.6873 37.3108 50.9785 37.1649C51.2696 37.019 51.6334 36.9461 52.0337 36.9461C52.3248 36.9461 52.5795 36.9825 52.8342 37.0555C53.0889 37.1284 53.2709 37.2378 53.4528 37.4202C53.6348 37.6025 53.7439 37.8214 53.8531 38.1132C53.9622 38.4049 53.9986 38.7696 53.9986 39.2073V42.745H52.5431V39.5355C52.5431 39.0614 52.434 38.7332 52.252 38.5508C52.0701 38.332 51.8154 38.259 51.4879 38.259C51.1968 38.259 50.9421 38.332 50.7237 38.5143C50.5054 38.6967 50.3235 38.9155 50.2143 39.1708V42.7815H48.7588V36.1072H47.9583L47.9219 34.8672Z" fill="black"/>
</svg>
