<svg width="28" height="24" viewBox="0 0 28 24" fill="none" xmlns="http://www.w3.org/2000/svg">
<path d="M25.2 0H2.8C1.26 0 0.0135484 1.35 0.0135484 3L0 21C0 22.65 1.26 24 2.8 24H25.2C26.74 24 28 22.65 28 21V3C28 1.35 26.74 0 25.2 0ZM24.64 6.375L14.7415 13.005C14.2935 13.305 13.7055 13.305 13.2575 13.005L3.36 6.375C3.22044 6.29137 3.09756 6.17743 2.99871 6.04C2.90161 5.90424 2.83088 5.74775 2.79094 5.58032C2.75099 5.41289 2.7427 5.23814 2.76658 5.067C2.79252 4.89525 2.84999 4.73122 2.93543 4.58502C3.02087 4.43882 3.13248 4.31357 3.26335 4.217C3.39637 4.11755 3.54593 4.04839 3.70332 4.01354C3.86071 3.97869 4.02279 3.97884 4.18013 4.014C4.33819 4.048 4.48723 4.117 4.62 4.215L14 10.5L23.38 4.215C23.5133 4.11593 23.6631 4.04723 23.8207 4.01289C23.9782 3.97856 24.1404 3.97927 24.2977 4.015C24.4537 4.04908 24.602 4.11721 24.734 4.21541C24.8659 4.31362 24.9789 4.43994 25.0663 4.587C25.1511 4.73228 25.2077 4.89546 25.2326 5.06622C25.2575 5.23697 25.25 5.41158 25.2108 5.579C25.1704 5.7467 25.0991 5.90331 25.0013 6.039C24.9027 6.17695 24.7798 6.29127 24.64 6.375Z" fill="black"/>
</svg>
