<svg width="20" height="20" viewBox="0 0 20 20" fill="none" xmlns="http://www.w3.org/2000/svg">
<path d="M19.7098 18.29L18.2898 19.71C18.1025 19.8962 17.849 20.0008 17.5848 20.0008C17.3206 20.0008 17.0672 19.8962 16.8798 19.71L4.99982 7.85C4.67463 7.94421 4.33833 7.99465 3.99982 8C3.36312 7.99955 2.73573 7.84711 2.16981 7.55536C1.60388 7.26362 1.11578 6.84099 0.746078 6.32263C0.376376 5.80426 0.135755 5.20513 0.0442226 4.57505C-0.0473101 3.94496 0.0128894 3.30213 0.219816 2.7L2.75982 5.24L3.28982 4.71L4.70982 3.29L5.23982 2.76L2.69982 0.22C3.30195 0.0130733 3.94478 -0.0471263 4.57486 0.0444064C5.20495 0.135939 5.80408 0.376559 6.32244 0.746262C6.84081 1.11596 7.26343 1.60407 7.55518 2.16999C7.84692 2.73591 7.99936 3.3633 7.99982 4C7.99447 4.33852 7.94402 4.67481 7.84982 5L19.7098 16.88C19.8961 17.0674 20.0006 17.3208 20.0006 17.585C20.0006 17.8492 19.8961 18.1026 19.7098 18.29ZM0.289816 16.88C0.103565 17.0674 -0.000976562 17.3208 -0.000976562 17.585C-0.000976563 17.8492 0.103565 18.1026 0.289816 18.29L1.70982 19.71C1.89718 19.8962 2.15063 20.0008 2.41482 20.0008C2.679 20.0008 2.93245 19.8962 3.11982 19.71L8.58982 14.25L5.75982 11.42L0.289816 16.88ZM17.9998 0L13.9998 2V4L11.8298 6.17L13.8298 8.17L15.9998 6H17.9998L19.9998 2L17.9998 0Z" fill="black"/>
</svg>
