<svg width="24" height="24" viewBox="0 0 24 24" fill="none" xmlns="http://www.w3.org/2000/svg">
<g clip-path="url(#clip0_68_4770)">
<path fill-rule="evenodd" clip-rule="evenodd" d="M4.5 3C4.5 2.20435 4.81607 1.44129 5.37868 0.87868C5.94129 0.316071 6.70435 0 7.5 0L16.5 0C16.894 0 17.2841 0.0775973 17.6481 0.228361C18.012 0.379126 18.3427 0.600104 18.6213 0.87868C18.8999 1.15726 19.1209 1.48797 19.2716 1.85195C19.4224 2.21593 19.5 2.60603 19.5 3V21C19.5 21.394 19.4224 21.7841 19.2716 22.1481C19.1209 22.512 18.8999 22.8427 18.6213 23.1213C18.3427 23.3999 18.012 23.6209 17.6481 23.7716C17.2841 23.9224 16.894 24 16.5 24H7.5C6.70435 24 5.94129 23.6839 5.37868 23.1213C4.81607 22.5587 4.5 21.7957 4.5 21V3ZM13.5 19.5C13.5 19.8978 13.342 20.2794 13.0607 20.5607C12.7794 20.842 12.3978 21 12 21C11.6022 21 11.2206 20.842 10.9393 20.5607C10.658 20.2794 10.5 19.8978 10.5 19.5C10.5 19.1022 10.658 18.7206 10.9393 18.4393C11.2206 18.158 11.6022 18 12 18C12.3978 18 12.7794 18.158 13.0607 18.4393C13.342 18.7206 13.5 19.1022 13.5 19.5Z" fill="black"/>
</g>
<defs>
<clipPath id="clip0_68_4770">
<rect width="16.8" height="24" fill="white" transform="translate(3.59961)"/>
</clipPath>
</defs>
</svg>
