<svg width="10" height="11" viewBox="0 0 10 11" fill="none" xmlns="http://www.w3.org/2000/svg">
<g clip-path="url(#clip0_68_3792)">
<path d="M9.85095 5.95962L4.71795 1.81563C4.67765 1.78336 4.62758 1.76573 4.57595 1.76562H3.37295C3.27295 1.76562 3.22595 1.88162 3.30295 1.94263L8.05995 5.78562H0.110953C0.0509531 5.78562 0.00195312 5.83063 0.00195312 5.88562V6.64563C0.00195312 6.70062 0.0509531 6.74563 0.110953 6.74563H8.06095L3.30095 10.5886C3.22495 10.6506 3.27095 10.7656 3.37095 10.7656H4.61495C4.64049 10.7658 4.66527 10.7569 4.68495 10.7406L9.85095 6.57062C9.89711 6.53347 9.93464 6.48672 9.96095 6.43363C10.0006 6.35415 10.0113 6.26335 9.99119 6.17684C9.97111 6.09034 9.92153 6.01353 9.85095 5.95962Z" fill="#CDCDCD"/>
</g>
<defs>
<clipPath id="clip0_68_3792">
<rect width="10" height="9" fill="white" transform="translate(0 1.76562)"/>
</clipPath>
</defs>
</svg>
