<svg width="19" height="19" viewBox="0 0 19 19" fill="none" xmlns="http://www.w3.org/2000/svg">
<path d="M17.2799 3.73551C17.2729 3.72848 15.8479 5.13707 13.0119 7.96832L11.0221 5.97848L15.2619 1.73864C13.0307 0.395675 10.1643 0.740205 8.30566 2.5988C7.59521 3.30885 7.08394 4.19323 6.82313 5.16323C6.56233 6.13323 6.56115 7.15475 6.81973 8.12535L6.86191 8.28238L0.217383 14.9246C0.0720703 15.0699 0.0720703 15.3089 0.217383 15.4543L3.53145 18.7683C3.67676 18.9136 3.91582 18.9136 4.06113 18.7683L10.701 12.1285L10.858 12.1707C12.8197 12.6933 14.9268 12.1496 16.3893 10.6871C18.2502 8.82848 18.5947 5.96207 17.2799 3.73551Z" fill="black"/>
</svg>
