<svg aria-hidden="true" style="position: absolute; width: 0; height: 0; overflow: hidden;" version="1.1" xmlns="http://www.w3.org/2000/svg" xmlns:xlink="http://www.w3.org/1999/xlink">
<defs>
<symbol id="icon-instagram" viewBox="0 0 32 32">
<path d="M16 11.835c-2.294 0-4.166 1.872-4.166 4.166s1.872 4.166 4.166 4.166c2.294 0 4.166-1.872 4.166-4.166s-1.872-4.166-4.166-4.166zM28.494 16c0-1.725 0.016-3.434-0.081-5.156-0.097-2-0.553-3.775-2.016-5.237-1.466-1.466-3.238-1.919-5.238-2.016-1.725-0.097-3.434-0.081-5.156-0.081-1.725 0-3.434-0.016-5.156 0.081-2 0.097-3.775 0.553-5.237 2.016-1.466 1.466-1.919 3.237-2.016 5.237-0.097 1.725-0.081 3.434-0.081 5.156s-0.016 3.434 0.081 5.156c0.097 2 0.553 3.775 2.016 5.238 1.466 1.466 3.238 1.919 5.237 2.016 1.725 0.097 3.434 0.081 5.156 0.081 1.725 0 3.434 0.016 5.156-0.081 2-0.097 3.775-0.553 5.238-2.016 1.466-1.466 1.919-3.238 2.016-5.238 0.1-1.722 0.081-3.431 0.081-5.156zM16 22.41c-3.547 0-6.409-2.863-6.409-6.409s2.863-6.409 6.409-6.409c3.547 0 6.409 2.863 6.409 6.409s-2.863 6.409-6.409 6.409zM22.672 10.825c-0.828 0-1.497-0.669-1.497-1.497s0.669-1.497 1.497-1.497c0.828 0 1.497 0.669 1.497 1.497 0 0.197-0.038 0.391-0.113 0.573s-0.185 0.347-0.325 0.486c-0.139 0.139-0.304 0.249-0.486 0.324s-0.376 0.114-0.573 0.113z"></path>
</symbol>
<symbol id="icon-arrow-down" viewBox="0 0 33 32">
<path d="M17.838 31.521l14.737-16.426c0.112-0.126 0.175-0.287 0.175-0.456v-3.848c0-0.322-0.414-0.47-0.629-0.226l-13.663 15.226v-25.443c0-0.191-0.162-0.348-0.36-0.348h-2.697c-0.198 0-0.36 0.157-0.36 0.348v25.438l-13.663-15.226c-0.22-0.243-0.629-0.096-0.629 0.226v3.978c0 0.083 0.031 0.165 0.090 0.226l14.822 16.53c0.135 0.15 0.302 0.271 0.49 0.354s0.391 0.126 0.598 0.126 0.41-0.043 0.598-0.126c0.188-0.083 0.355-0.203 0.49-0.354z"></path>
</symbol>
<symbol id="icon-arrow-long-right" viewBox="0 0 215 32">
<path d="M206.115 18.133l-8.285 8.533 2.071 4.267 14.498-14.933-14.498-14.933-2.071 4.267 8.285 8.533h-205.049v4.267h205.049z"></path>
</symbol>
<symbol id="icon-attantion" viewBox="0 0 35 32">
<path fill="#eb5757" style="fill: var(--color1, #eb5757)" d="M34.667 29.44c0 0.832-0.286 1.467-0.857 1.904s-1.272 0.656-2.102 0.656h-28.749c-0.831 0-1.531-0.224-2.102-0.672s-0.857-1.077-0.857-1.888c0-0.64 0.187-1.291 0.561-1.952l14.359-25.728c0.685-1.173 1.495-1.76 2.429-1.76s1.723 0.587 2.367 1.76l14.39 25.76c0.374 0.683 0.561 1.323 0.561 1.92zM19.498 13.088v-4.672h-4.329v4.672c0 0.299 0.021 0.581 0.062 0.848s0.099 0.565 0.171 0.896c0.073 0.331 0.13 0.613 0.171 0.848l0.81 5.184h1.838l0.841-5.184c0.042-0.213 0.104-0.491 0.187-0.832s0.145-0.645 0.187-0.912c0.042-0.267 0.062-0.549 0.062-0.848zM19.498 25.472c0-0.619-0.213-1.141-0.639-1.568s-0.94-0.64-1.542-0.64c-0.581 0-1.085 0.213-1.511 0.64s-0.639 0.949-0.639 1.568c0 0.619 0.213 1.147 0.639 1.584s0.929 0.656 1.511 0.656c0.602 0 1.116-0.219 1.542-0.656s0.639-0.965 0.639-1.584z"></path>
</symbol>
<symbol id="icon-audit" viewBox="0 0 32 32">
<path d="M21.091 14.545c3.636 0 6.545 2.909 6.545 6.545 0 1.28-0.364 2.487-1.004 3.491l4.48 4.509-2.022 2.022-4.538-4.465c-1.004 0.625-2.196 0.989-3.462 0.989-3.636 0-6.545-2.909-6.545-6.545s2.909-6.545 6.545-6.545zM21.091 17.455c-0.964 0-1.889 0.383-2.571 1.065s-1.065 1.607-1.065 2.571 0.383 1.889 1.065 2.571c0.682 0.682 1.607 1.065 2.571 1.065s1.889-0.383 2.571-1.065c0.682-0.682 1.065-1.607 1.065-2.571s-0.383-1.889-1.065-2.571c-0.682-0.682-1.607-1.065-2.571-1.065zM11.636 0h5.818c0.771 0 1.511 0.306 2.057 0.852s0.852 1.286 0.852 2.057v2.909h5.818c0.771 0 1.511 0.306 2.057 0.852s0.852 1.285 0.852 2.057v7.316c-0.852-1.351-2.033-2.464-3.432-3.235s-2.971-1.174-4.568-1.172c-2.508 0-4.912 0.996-6.685 2.769s-2.769 4.178-2.769 6.685c0 2.545 1.004 4.844 2.633 6.545h-11.36c-0.772 0-1.511-0.306-2.057-0.852s-0.852-1.286-0.852-2.057v-16c0-1.615 1.295-2.909 2.909-2.909h5.818v-2.909c0-1.615 1.295-2.909 2.909-2.909zM17.455 5.818v-2.909h-5.818v2.909h5.818z"></path>
</symbol>
<symbol id="icon-burger" viewBox="0 0 32 32">
<path d="M0 1.333h32v4h-32v-4z"></path>
<path d="M0 13.333h32v4h-32v-4z"></path>
<path d="M0 25.333h32v4h-32v-4z"></path>
</symbol>
<symbol id="icon-close" viewBox="0 0 32 32">
<path d="M4.31 0l26.937 26.937-4.31 4.31-26.937-26.937 4.31-4.31z"></path>
<path d="M0.001 26.937l26.937-26.937 4.31 4.31-26.937 26.937-4.31-4.31z"></path>
</symbol>
<symbol id="icon-facebook" viewBox="0 0 32 32">
<path d="M4.624 3.2h22.768c0.784 0 1.408 0.624 1.408 1.408v22.784c0 0.768-0.624 1.408-1.408 1.408h-6.528v-9.92h3.328l0.496-3.856h-3.824v-2.464c0-1.12 0.32-1.888 1.92-1.888h2.048v-3.456c-0.352-0.048-1.568-0.144-2.976-0.144-2.96 0-4.976 1.792-4.976 5.104v2.848h-3.344v3.856h3.344v9.92h-12.256c-0.375 0-0.735-0.148-1.001-0.411s-0.418-0.622-0.423-0.997v-22.784c0-0.784 0.64-1.408 1.424-1.408z"></path>
</symbol>
<symbol id="icon-linkedin" viewBox="0 0 32 32">
<path d="M27.734 3.2h-24.533c-0.59 0-1.067 0.477-1.067 1.067v24.533c0 0.59 0.477 1.067 1.067 1.067h24.533c0.59 0 1.067-0.477 1.067-1.067v-24.533c0-0.59-0.477-1.067-1.067-1.067zM10.044 25.924h-3.957v-12.727h3.957v12.727zM8.067 11.457c-0.454 0-0.897-0.134-1.274-0.386s-0.671-0.61-0.845-1.029c-0.174-0.419-0.219-0.88-0.13-1.325s0.307-0.854 0.628-1.174c0.321-0.321 0.729-0.539 1.174-0.628s0.906-0.043 1.325 0.13c0.419 0.174 0.777 0.468 1.029 0.845s0.387 0.821 0.387 1.274c-0.003 1.267-1.030 2.293-2.293 2.293zM24.857 25.924h-3.953v-6.19c0-1.477-0.027-3.373-2.057-3.373-2.057 0-2.373 1.607-2.373 3.267v6.297h-3.95v-12.727h3.793v1.74h0.053c0.527-1 1.817-2.057 3.743-2.057 4.007 0 4.743 2.637 4.743 6.063v6.98z"></path>
</symbol>
<symbol id="icon-design" viewBox="0 0 34 32">
<path d="M23.538 15.129l2.791-2.791-6.667-6.667-2.791 2.791-7.36-7.342c-1.387-1.387-3.644-1.387-5.031 0l-3.378 3.378c-1.387 1.387-1.387 3.644 0 5.031l7.342 7.342-8.444 8.462v6.667h6.667l8.462-8.462 7.342 7.342c1.689 1.689 3.964 1.067 5.031 0l3.378-3.378c1.387-1.387 1.387-3.644 0-5.031l-7.342-7.342zM10.987 14.346l-7.36-7.342 3.36-3.378 2.258 2.258-2.098 2.116 2.507 2.507 2.116-2.116 2.578 2.578-3.36 3.378zM24.996 28.373l-7.342-7.342 3.378-3.378 2.578 2.578-2.116 2.116 2.507 2.507 2.116-2.116 2.258 2.258-3.378 3.378zM31.484 7.182c0.165-0.164 0.295-0.36 0.385-0.575s0.135-0.446 0.135-0.678c0-0.233-0.046-0.463-0.135-0.678s-0.22-0.41-0.385-0.575l-4.16-4.16c-0.836-0.836-1.991-0.516-2.507 0l-3.253 3.253 6.667 6.667 3.253-3.253z"></path>
</symbol>
<symbol id="icon-done" viewBox="0 0 32 32">
<path d="M7.742 12.903v3.097l6.452 7.226 10.839-11.871v-3.097l-10.839 11.871-1.032-1.032-5.419-6.194z"></path>
<path fill="none" stroke="#0e0e0e" style="stroke: var(--color2, #0e0e0e)" stroke-linejoin="miter" stroke-linecap="butt" stroke-miterlimit="4" stroke-width="2.0645" d="M30.968 16c0 8.266-6.701 14.968-14.968 14.968s-14.968-6.701-14.968-14.968c0-8.266 6.701-14.968 14.968-14.968s14.968 6.701 14.968 14.968z"></path>
</symbol>
<symbol id="icon-eye" viewBox="0 0 44 32">
<path d="M22 1c-10 0-18.54 6.22-22 15 3.46 8.78 12 15 22 15s18.54-6.22 22-15c-3.46-8.78-12-15-22-15zM22 26c-5.52 0-10-4.48-10-10s4.48-10 10-10c5.52 0 10 4.48 10 10s-4.48 10-10 10zM22 10c-3.32 0-6 2.68-6 6s2.68 6 6 6c3.32 0 6-2.68 6-6s-2.68-6-6-6z"></path>
</symbol>
<symbol id="icon-frame-down-left" viewBox="0 0 32 32">
<path fill="#fff" style="fill: var(--color3, #fff)" d="M0 27.2h4.8v-27.2h-4.8v27.2zM32 32v-4.8h-27.2v4.8h27.2z"></path>
</symbol>
<symbol id="icon-frame-down-right" viewBox="0 0 32 32">
<path fill="#fff" style="fill: var(--color3, #fff)" d="M32 27.2h-4.8v-27.2h4.8v27.2zM0 32v-4.8h27.2v4.8h-27.2z"></path>
</symbol>
<symbol id="icon-frame-up-left" viewBox="0 0 32 32">
<path fill="#fff" style="fill: var(--color3, #fff)" d="M0 4.8h4.8v27.2h-4.8v-27.2zM32 0v4.8h-27.2v-4.8h27.2z"></path>
</symbol>
<symbol id="icon-frame-up-right" viewBox="0 0 32 32">
<path fill="#fff" style="fill: var(--color3, #fff)" d="M32 4.8h-4.8v27.2h4.8v-27.2zM0 0v4.8h27.2v-4.8h-27.2z"></path>
</symbol>
<symbol id="icon-logo" viewBox="0 0 39 32">
<path d="M3.229 3.236h-3.229v18.62h7.278v-3.236h-4.049v-15.384z"></path>
<path d="M14.345 0h-11.115v3.236h9.315l3.678 6.074-3.678 6.074h-5.266v3.236h7.066l5.663-9.31-5.663-9.31z"></path>
<path d="M7.254 25.437c0.238-0.053 0.476-0.080 0.767-0.106 0.265-0.026 0.556-0.026 0.82-0.026 0.291 0 0.582 0.026 0.847 0.080 0.291 0.053 0.556 0.133 0.767 0.292 0.238 0.133 0.423 0.345 0.556 0.584s0.212 0.584 0.212 0.981c0 0.345-0.053 0.663-0.185 0.902s-0.291 0.451-0.503 0.61c-0.212 0.159-0.45 0.292-0.715 0.345-0.265 0.080-0.529 0.106-0.82 0.106h-0.132c-0.053 0-0.132 0-0.185 0s-0.132 0-0.185 0-0.106 0-0.132-0.027v1.989h-1.138l0.026-5.729zM8.947 26.259c-0.106 0-0.212 0-0.318 0s-0.185 0.027-0.238 0.027v1.857c0.026 0 0.053 0 0.106 0.027 0.053 0 0.079 0 0.132 0s0.106 0 0.132 0c0.053 0 0.079 0 0.106 0 0.159 0 0.291-0.027 0.45-0.053 0.132-0.026 0.265-0.080 0.397-0.159 0.106-0.080 0.212-0.186 0.265-0.318 0.079-0.133 0.106-0.292 0.106-0.531 0-0.186-0.026-0.318-0.106-0.451-0.053-0.106-0.159-0.212-0.265-0.292s-0.238-0.133-0.371-0.159c-0.132 0.080-0.265 0.053-0.397 0.053z"></path>
<path d="M11.562 29.071c0-0.345 0.053-0.663 0.159-0.928s0.265-0.504 0.45-0.69c0.185-0.186 0.423-0.318 0.688-0.424s0.556-0.133 0.9-0.133c0.344 0 0.662 0.053 0.926 0.159s0.503 0.239 0.688 0.451c0.185 0.186 0.318 0.424 0.423 0.69s0.132 0.557 0.132 0.902c0 0.345-0.053 0.663-0.159 0.928s-0.265 0.504-0.45 0.69-0.423 0.318-0.688 0.424c-0.265 0.106-0.556 0.133-0.9 0.133s-0.662-0.053-0.926-0.159c-0.265-0.106-0.503-0.239-0.688-0.451-0.185-0.186-0.318-0.424-0.423-0.69-0.079-0.265-0.132-0.584-0.132-0.902zM12.674 29.071c0 0.186 0.026 0.345 0.079 0.504s0.132 0.292 0.212 0.398c0.106 0.106 0.212 0.212 0.344 0.265s0.291 0.106 0.45 0.106c0.318 0 0.582-0.106 0.768-0.292 0.212-0.212 0.291-0.53 0.291-0.955 0-0.371-0.106-0.69-0.291-0.928s-0.45-0.345-0.794-0.345c-0.159 0-0.291 0.027-0.423 0.080s-0.238 0.133-0.344 0.239c-0.106 0.106-0.159 0.239-0.238 0.398-0.026 0.133-0.053 0.318-0.053 0.53z"></path>
<path d="M18.975 28.011l0.635 1.804h0.026l0.079-0.716 0.344-2.069 0.953-0.027-0.82 4.138h-1.085l-0.45-1.645h-0.053l-0.503 1.645h-1.111l-0.873-4.111h1.059l0.423 2.281 0.053 0.504h0.053l0.609-1.804h0.662z"></path>
<path d="M25.247 30.689c-0.079 0.053-0.159 0.133-0.265 0.186s-0.238 0.133-0.397 0.186c-0.159 0.053-0.318 0.106-0.503 0.133s-0.37 0.053-0.582 0.053c-0.344 0-0.662-0.053-0.953-0.159-0.265-0.106-0.503-0.239-0.715-0.424-0.185-0.186-0.344-0.424-0.45-0.69s-0.159-0.557-0.159-0.902c0-0.371 0.053-0.69 0.185-0.955 0.106-0.265 0.265-0.504 0.476-0.69s0.423-0.318 0.715-0.398c0.265-0.080 0.556-0.133 0.873-0.133 0.212 0 0.423 0.027 0.635 0.080s0.423 0.159 0.609 0.292c0.185 0.133 0.344 0.318 0.45 0.531s0.185 0.504 0.185 0.849c0 0.239-0.026 0.504-0.079 0.769h-2.964c0 0.186 0.053 0.318 0.106 0.451 0.079 0.133 0.159 0.212 0.265 0.292s0.238 0.133 0.397 0.159c0.132 0.027 0.291 0.053 0.476 0.053 0.318 0 0.609-0.027 0.82-0.106s0.371-0.159 0.503-0.292l0.37 0.716zM23.474 27.745c-0.132 0-0.265 0.027-0.397 0.053s-0.238 0.106-0.344 0.159c-0.106 0.080-0.185 0.159-0.238 0.292-0.053 0.106-0.106 0.239-0.106 0.371h2.011c0-0.265-0.079-0.504-0.238-0.663-0.159-0.133-0.397-0.212-0.688-0.212z"></path>
<path d="M25.855 30.212h1.006v-2.308h-1.006v-0.902h1.852l0.132 0.53h0.026c0.159-0.186 0.318-0.345 0.529-0.451 0.185-0.133 0.423-0.186 0.688-0.186 0.318 0 0.582 0.133 0.767 0.371s0.291 0.637 0.291 1.22h-0.953c0-0.186-0.026-0.345-0.079-0.424s-0.159-0.133-0.265-0.133c-0.212 0-0.397 0.053-0.529 0.159s-0.238 0.239-0.344 0.371v1.751h1.773v0.902h-3.864l-0.026-0.902z"></path>
<path d="M30.142 25.358h1.747v3.289h0.238l1.35-1.645h1.244l-1.641 1.883 1.059 1.326h0.767v0.902h-1.323l-1.403-1.698h-0.291v1.698l-1.085 0.027v-4.881h-0.662v-0.902z"></path>
<path d="M34.852 25.358h1.667v2.095h0.026c0.132-0.186 0.318-0.318 0.529-0.424s0.476-0.159 0.767-0.159c0.212 0 0.397 0.026 0.582 0.080s0.318 0.133 0.45 0.265c0.132 0.133 0.212 0.292 0.291 0.504s0.106 0.477 0.106 0.796v2.573h-1.059v-2.334c0-0.345-0.079-0.584-0.212-0.716-0.132-0.159-0.318-0.212-0.556-0.212-0.212 0-0.397 0.053-0.556 0.186s-0.291 0.292-0.37 0.477v2.626h-1.059v-4.854h-0.582l-0.026-0.902z"></path>
</symbol>
<symbol id="icon-logo-part" viewBox="0 0 30 32">
<path fill="#cdcdcd" style="fill: var(--color4, #cdcdcd)" d="M4.727 4.737h-4.727v27.264h10.658v-4.74h-5.931v-22.524z"></path>
<path fill="#cdcdcd" style="fill: var(--color4, #cdcdcd)" d="M21.004 0h-16.277v4.736h13.641l5.389 8.896-5.389 8.892h-7.712v4.738h10.347l8.294-13.632-8.292-13.63z"></path>
</symbol>
<symbol id="icon-long-arrow-down" viewBox="0 0 19 32">
<path d="M2.667 22.873l6.667 5.705 6.667-5.705 2.667 1.141-9.333 7.986-9.333-7.986 2.667-1.141z"></path>
<path d="M10.667 1.195v28.523h-2.667v-28.523h2.667z"></path>
</symbol>
<symbol id="icon-mail" viewBox="0 0 37 32">
<path d="M33.6 0h-29.867c-2.053 0-3.715 1.8-3.715 4l-0.018 24c0 2.2 1.68 4 3.733 4h29.867c2.053 0 3.733-1.8 3.733-4v-24c0-2.2-1.68-4-3.733-4zM32.853 8.5l-13.198 8.84c-0.597 0.4-1.381 0.4-1.979 0l-13.197-8.84c-0.186-0.111-0.35-0.263-0.482-0.447-0.129-0.181-0.224-0.39-0.277-0.613s-0.064-0.456-0.032-0.684c0.035-0.229 0.111-0.448 0.225-0.643s0.263-0.362 0.437-0.491c0.177-0.133 0.377-0.225 0.587-0.271s0.426-0.046 0.636 0.001c0.211 0.045 0.409 0.137 0.587 0.268l12.507 8.38 12.507-8.38c0.178-0.132 0.377-0.224 0.588-0.269s0.426-0.045 0.636 0.003c0.208 0.045 0.406 0.136 0.582 0.267s0.327 0.299 0.443 0.495c0.113 0.194 0.189 0.411 0.222 0.639s0.023 0.46-0.029 0.684c-0.054 0.224-0.149 0.432-0.279 0.613-0.131 0.184-0.295 0.336-0.482 0.448z"></path>
</symbol>
<symbol id="icon-maintain" viewBox="0 0 32 32">
<path d="M31.536 29.264l-2.272 2.272c-0.3 0.298-0.705 0.465-1.128 0.465s-0.828-0.167-1.128-0.465l-19.008-18.976c-0.52 0.151-1.058 0.231-1.6 0.24-1.019-0.001-2.023-0.245-2.928-0.711s-1.686-1.143-2.278-1.972c-0.592-0.829-0.977-1.788-1.123-2.796s-0.050-2.037 0.281-3l4.064 4.064 3.968-3.968-4.064-4.064c0.963-0.331 1.992-0.427 3-0.281s1.967 0.531 2.796 1.123c0.829 0.592 1.506 1.373 1.972 2.278s0.711 1.909 0.711 2.928c-0.009 0.542-0.089 1.080-0.24 1.6l18.976 19.008c0.298 0.3 0.465 0.705 0.465 1.128s-0.167 0.828-0.465 1.128zM0.464 27.008c-0.298 0.3-0.465 0.705-0.465 1.128s0.167 0.828 0.465 1.128l2.272 2.272c0.3 0.298 0.705 0.465 1.128 0.465s0.828-0.167 1.128-0.465l8.752-8.736-4.528-4.528-8.752 8.736zM28.8 0l-6.4 3.2v3.2l-3.472 3.472 3.2 3.2 3.472-3.472h3.2l3.2-6.4-3.2-3.2z"></path>
</symbol>
<symbol id="icon-open-full" viewBox="0 0 32 32">
<path d="M4.48 25.28l-4.48-4.48v11.2h11.2l-4.48-4.48 6.944-6.912-2.272-2.272-6.912 6.944zM27.52 6.72l4.48 4.48v-11.2h-11.2l4.48 4.48-6.944 6.912 2.272 2.272 6.912-6.944zM25.28 27.52l-4.48 4.48h11.2v-11.2l-4.48 4.48-6.912-6.944-2.272 2.272 6.928 6.928 0.016-0.016zM6.72 4.48l4.48-4.48h-11.2v11.2l4.48-4.48 6.912 6.944 2.272-2.272-6.944-6.912z"></path>
</symbol>
<symbol id="icon-polygon-down" viewBox="0 0 55 32">
<path d="M27.429 32l-23.754-30.857h47.508l-23.754 30.857z"></path>
</symbol>
<symbol id="icon-polygon-up" viewBox="0 0 55 32">
<path d="M27.429 0l23.754 30.857h-47.508l23.754-30.857z"></path>
</symbol>
<symbol id="icon-refine" viewBox="0 0 32 32">
<path d="M29.103 6.291c-0.012-0.012-2.412 2.361-7.188 7.129l-3.351-3.351 7.141-7.141c-3.758-2.262-8.585-1.682-11.716 1.449-1.197 1.196-2.058 2.685-2.497 4.319s-0.441 3.354-0.006 4.989l0.071 0.264-11.191 11.187c-0.245 0.245-0.245 0.647 0 0.892l5.582 5.581c0.245 0.245 0.647 0.245 0.892 0l11.183-11.183 0.264 0.071c3.304 0.88 6.853-0.036 9.316-2.499 3.134-3.13 3.714-7.958 1.5-11.708z"></path>
</symbol>
<symbol id="icon-test" viewBox="0 0 36 32">
<path d="M32 0h-28.444c-1.956 0-3.556 1.6-3.556 3.556v24.889c0 1.956 1.6 3.556 3.556 3.556h28.444c1.956 0 3.556-1.6 3.556-3.556v-24.889c0-1.956-1.6-3.556-3.556-3.556zM14.222 24.889h-8.889v-3.556h8.889v3.556zM14.222 17.778h-8.889v-3.556h8.889v3.556zM14.222 10.667h-8.889v-3.556h8.889v3.556zM22.791 21.333l-5.013-5.049 2.507-2.507 2.507 2.524 5.636-5.636 2.524 2.524-8.16 8.142z"></path>
</symbol>
<symbol id="icon-vector-right" viewBox="0 0 34 32">
<path d="M32.418 14.942l-16.528-14.346c-0.128-0.11-0.291-0.171-0.459-0.171h-3.872c-0.071 0-0.141 0.022-0.199 0.063s-0.103 0.098-0.128 0.165c-0.025 0.067-0.028 0.14-0.010 0.208s0.056 0.131 0.11 0.177l15.322 13.3h-25.603c-0.093 0-0.182 0.037-0.248 0.103s-0.103 0.155-0.103 0.247v2.625c0 0.193 0.157 0.35 0.35 0.35h25.598l-15.322 13.3c-0.054 0.046-0.093 0.108-0.11 0.177s-0.014 0.142 0.010 0.208 0.069 0.124 0.128 0.165c0.058 0.041 0.128 0.063 0.199 0.063h4.003c0.084 0 0.165-0.031 0.227-0.088l16.633-14.428c0.152-0.131 0.274-0.294 0.357-0.477s0.126-0.382 0.125-0.583c-0.001-0.201-0.044-0.399-0.127-0.582s-0.204-0.346-0.354-0.478l0.003 0.001z"></path>
</symbol>
<symbol id="icon-vector-up" viewBox="0 0 32 32">
<path d="M14.796 0.479l-14.489 16.425c-0.11 0.126-0.172 0.287-0.172 0.457v3.848c0 0.322 0.407 0.47 0.619 0.226l13.433-15.226v25.442c0 0.191 0.159 0.348 0.354 0.348h2.651c0.194 0 0.354-0.157 0.354-0.348v-25.438l13.433 15.226c0.217 0.243 0.619 0.096 0.619-0.226v-3.978c0-0.083-0.031-0.165-0.088-0.226l-14.573-16.53c-0.133-0.15-0.297-0.271-0.482-0.354s-0.385-0.126-0.588-0.126c-0.203 0-0.403 0.043-0.588 0.126s-0.349 0.203-0.482 0.354z"></path>
</symbol>
<symbol id="icon-vector-white" viewBox="0 0 27 32">
<path fill="#fff" style="fill: var(--color3, #fff)" d="M26.267 14.912l-13.688-14.737c-0.105-0.112-0.239-0.175-0.38-0.175h-3.206c-0.268 0-0.391 0.413-0.188 0.629l12.688 13.663h-21.202c-0.159 0-0.29 0.162-0.29 0.36v2.697c0 0.198 0.13 0.36 0.29 0.36h21.199l-12.688 13.663c-0.203 0.22-0.080 0.629 0.188 0.629h3.315c0.069 0 0.138-0.031 0.188-0.090l13.775-14.823c0.125-0.135 0.226-0.302 0.295-0.49s0.105-0.391 0.105-0.598c0-0.206-0.036-0.41-0.105-0.598s-0.169-0.355-0.295-0.49z"></path>
</symbol>
</defs>
</svg>
