<svg width="20" height="24" viewBox="0 0 20 24" fill="none" xmlns="http://www.w3.org/2000/svg">
<path d="M19.7004 11.1843L9.43445 0.13146C9.35565 0.0471908 9.25511 0 9.14913 0H6.74433C6.54325 0 6.45086 0.310112 6.60303 0.47191L16.119 10.7191H0.217384C0.0978226 10.7191 0 10.8404 0 10.9888V13.0112C0 13.1596 0.0978226 13.2809 0.217384 13.2809H16.1163L6.60031 23.5281C6.44814 23.6933 6.54053 24 6.74161 24H9.22793C9.27956 24 9.33119 23.9764 9.36923 23.9326L19.7004 12.8157C19.7945 12.7143 19.8699 12.5889 19.9216 12.4482C19.9733 12.3075 20 12.1546 20 12C20 11.8454 19.9733 11.6925 19.9216 11.5518C19.8699 11.4111 19.7945 11.2857 19.7004 11.1843Z" fill="white"/>
</svg>
