<svg width="14" height="14" viewBox="0 0 14 14" fill="none" xmlns="http://www.w3.org/2000/svg">
<path d="M6.4731 0.209724L0.13399 7.39588C0.0856588 7.45105 0.0585935 7.52142 0.0585935 7.59561L0.0585935 9.27897C0.0585935 9.41973 0.236452 9.4844 0.329248 9.37788L6.20631 2.7167L6.20631 13.8478C6.20631 13.9315 6.27591 14 6.36097 14L7.52092 14C7.60598 14 7.67558 13.9315 7.67558 13.8478L7.67558 2.7186L13.5526 9.37978C13.6474 9.4863 13.8233 9.42163 13.8233 9.28087L13.8233 7.54044C13.8233 7.5043 13.8098 7.46816 13.7846 7.44153L7.40879 0.209724C7.35059 0.143876 7.27871 0.0910785 7.198 0.054898C7.1173 0.0187175 7.02964 -4.10248e-06 6.94095 -4.09882e-06C6.85225 -4.09516e-06 6.7646 0.0187175 6.68389 0.054898C6.60318 0.0910785 6.5313 0.143876 6.4731 0.209724Z" fill="black"/>
</svg>
