<svg width="42" height="40" viewBox="0 0 42 40" fill="none" xmlns="http://www.w3.org/2000/svg">
<path d="M40.523 18.677L19.8625 0.74475C19.703 0.607037 19.4992 0.531263 19.2885 0.53125H14.448C14.359 0.53129 14.2721 0.558584 14.1991 0.609462C14.1261 0.66034 14.0704 0.732362 14.0395 0.81584C14.0086 0.899318 14.0041 0.990249 14.0264 1.0764C14.0487 1.16256 14.0969 1.2398 14.1645 1.29775L33.3165 17.9227H1.3125C1.19647 17.9227 1.08519 17.9688 1.00314 18.0509C0.921093 18.1329 0.875 18.2442 0.875 18.3602V21.6415C0.875 21.883 1.071 22.079 1.3125 22.079H33.3095L14.1575 38.704C14.0899 38.7619 14.0417 38.8392 14.0194 38.9253C13.9971 39.0115 14.0016 39.1024 14.0325 39.1859C14.0634 39.2694 14.1191 39.3414 14.1921 39.3923C14.2651 39.4432 14.352 39.4705 14.441 39.4705H19.4443C19.5493 39.471 19.6506 39.4316 19.7277 39.3602L40.5195 21.3247C40.7096 21.1606 40.8619 20.9571 40.9658 20.7284C41.0698 20.4997 41.1229 20.2512 41.1215 20C41.1205 19.7492 41.0663 19.5014 40.9625 19.2731C40.8588 19.0447 40.7078 18.841 40.5195 18.6752L40.523 18.677Z" fill="black"/>
</svg>
